<svg width="102" height="44" viewBox="0 0 102 44" fill="none" xmlns="http://www.w3.org/2000/svg">
<rect x="0.5" y="0.5" width="101" height="43" rx="7.5" fill="white" stroke="#F0CCD0"/>
<path d="M11.1724 27H9.54176L13.2058 16.8182H14.9807L18.6447 27H17.0141L14.1355 18.6676H14.056L11.1724 27ZM11.4459 23.0128H16.7357V24.3054H11.4459V23.0128ZM23.3693 27.1541C22.6302 27.1541 21.9939 26.9867 21.4603 26.652C20.93 26.3139 20.5223 25.8482 20.2372 25.255C19.9522 24.6617 19.8097 23.9822 19.8097 23.2166C19.8097 22.4411 19.9555 21.7566 20.2472 21.1634C20.5389 20.5668 20.9498 20.1011 21.4801 19.7663C22.0104 19.4316 22.6352 19.2642 23.3544 19.2642C23.9344 19.2642 24.4515 19.3719 24.9056 19.5874C25.3596 19.7995 25.7259 20.0978 26.0043 20.4822C26.286 20.8667 26.4534 21.3158 26.5064 21.8295H25.0597C24.9801 21.4716 24.7978 21.1634 24.5128 20.9048C24.2311 20.6463 23.8532 20.517 23.3793 20.517C22.965 20.517 22.6021 20.6264 22.2905 20.8452C21.9823 21.0606 21.742 21.3688 21.5696 21.7699C21.3973 22.1676 21.3111 22.6383 21.3111 23.1818C21.3111 23.7386 21.3956 24.2192 21.5647 24.6236C21.7337 25.0279 21.9723 25.3411 22.2806 25.5632C22.5921 25.7853 22.9584 25.8963 23.3793 25.8963C23.661 25.8963 23.9162 25.8449 24.1449 25.7422C24.3769 25.6361 24.5708 25.4853 24.7266 25.2898C24.8857 25.0942 24.9967 24.8589 25.0597 24.5838H26.5064C26.4534 25.0777 26.2926 25.5185 26.0242 25.9062C25.7557 26.294 25.3961 26.599 24.9453 26.821C24.4979 27.0431 23.9726 27.1541 23.3693 27.1541ZM31.5927 27.1541C30.8536 27.1541 30.2172 26.9867 29.6836 26.652C29.1533 26.3139 28.7456 25.8482 28.4606 25.255C28.1756 24.6617 28.033 23.9822 28.033 23.2166C28.033 22.4411 28.1789 21.7566 28.4705 21.1634C28.7622 20.5668 29.1732 20.1011 29.7035 19.7663C30.2338 19.4316 30.8586 19.2642 31.5778 19.2642C32.1578 19.2642 32.6749 19.3719 33.1289 19.5874C33.583 19.7995 33.9492 20.0978 34.2276 20.4822C34.5094 20.8667 34.6767 21.3158 34.7298 21.8295H33.283C33.2035 21.4716 33.0212 21.1634 32.7362 20.9048C32.4544 20.6463 32.0766 20.517 31.6026 20.517C31.1883 20.517 30.8254 20.6264 30.5139 20.8452C30.2056 21.0606 29.9653 21.3688 29.793 21.7699C29.6206 22.1676 29.5345 22.6383 29.5345 23.1818C29.5345 23.7386 29.619 24.2192 29.788 24.6236C29.9571 25.0279 30.1957 25.3411 30.5039 25.5632C30.8155 25.7853 31.1817 25.8963 31.6026 25.8963C31.8844 25.8963 32.1396 25.8449 32.3683 25.7422C32.6003 25.6361 32.7942 25.4853 32.9499 25.2898C33.109 25.0942 33.2201 24.8589 33.283 24.5838H34.7298C34.6767 25.0777 34.516 25.5185 34.2475 25.9062C33.9791 26.294 33.6195 26.599 33.1687 26.821C32.7213 27.0431 32.1959 27.1541 31.5927 27.1541ZM39.8906 27.1541C39.1383 27.1541 38.4903 26.9934 37.9467 26.6719C37.4065 26.3471 36.9889 25.8913 36.6939 25.3047C36.4022 24.7147 36.2564 24.0237 36.2564 23.2315C36.2564 22.4493 36.4022 21.7599 36.6939 21.1634C36.9889 20.5668 37.3999 20.1011 37.9269 19.7663C38.4572 19.4316 39.077 19.2642 39.7862 19.2642C40.2171 19.2642 40.6347 19.3355 41.0391 19.478C41.4434 19.6205 41.8064 19.8442 42.1279 20.1491C42.4494 20.4541 42.7029 20.8501 42.8885 21.3374C43.0741 21.8213 43.1669 22.4096 43.1669 23.1023V23.6293H37.0966V22.5156H41.7102C41.7102 22.1245 41.6307 21.7782 41.4716 21.4766C41.3125 21.1716 41.0888 20.9313 40.8004 20.7557C40.5154 20.58 40.1806 20.4922 39.7962 20.4922C39.3786 20.4922 39.014 20.5949 38.7024 20.8004C38.3942 21.0026 38.1556 21.2678 37.9865 21.5959C37.8208 21.9207 37.7379 22.2737 37.7379 22.6548V23.5249C37.7379 24.0353 37.8274 24.4695 38.0064 24.8274C38.1887 25.1854 38.4422 25.4588 38.7671 25.6477C39.0919 25.8333 39.4714 25.9261 39.9056 25.9261C40.1873 25.9261 40.4441 25.8864 40.6761 25.8068C40.9082 25.724 41.1087 25.6013 41.2777 25.4389C41.4467 25.2765 41.576 25.076 41.6655 24.8374L43.0725 25.0909C42.9598 25.5052 42.7576 25.8681 42.4659 26.1797C42.1776 26.4879 41.8146 26.7282 41.3771 26.9006C40.943 27.0696 40.4475 27.1541 39.8906 27.1541ZM50.8185 21.228L49.4712 21.4666C49.4149 21.2943 49.3254 21.1302 49.2028 20.9744C49.0835 20.8187 48.9211 20.6911 48.7156 20.5916C48.5101 20.4922 48.2532 20.4425 47.945 20.4425C47.524 20.4425 47.1727 20.5369 46.891 20.7259C46.6093 20.9115 46.4684 21.1518 46.4684 21.4467C46.4684 21.7019 46.5629 21.9074 46.7518 22.0632C46.9407 22.219 47.2456 22.3466 47.6666 22.446L48.8796 22.7244C49.5823 22.8868 50.1059 23.1371 50.4506 23.4751C50.7953 23.8132 50.9677 24.2524 50.9677 24.7926C50.9677 25.25 50.8351 25.6577 50.57 26.0156C50.3081 26.3703 49.9419 26.6487 49.4712 26.8509C49.0039 27.053 48.462 27.1541 47.8455 27.1541C46.9904 27.1541 46.2927 26.9718 45.7525 26.6072C45.2122 26.2393 44.8808 25.7173 44.7582 25.0412L46.195 24.8224C46.2845 25.197 46.4684 25.4804 46.7468 25.6726C47.0252 25.8615 47.3881 25.956 47.8356 25.956C48.3228 25.956 48.7122 25.8549 49.0039 25.6527C49.2956 25.4472 49.4414 25.197 49.4414 24.902C49.4414 24.6634 49.3519 24.4628 49.1729 24.3004C48.9973 24.138 48.7272 24.0154 48.3626 23.9325L47.07 23.6491C46.3574 23.4867 45.8304 23.2282 45.489 22.8736C45.1509 22.5189 44.9819 22.0698 44.9819 21.5263C44.9819 21.0755 45.1078 20.6811 45.3597 20.343C45.6116 20.005 45.9596 19.7415 46.4038 19.5526C46.8479 19.3603 47.3567 19.2642 47.93 19.2642C48.7553 19.2642 49.405 19.4432 49.8789 19.8011C50.3529 20.1558 50.6661 20.6314 50.8185 21.228ZM58.6044 21.228L57.2571 21.4666C57.2008 21.2943 57.1113 21.1302 56.9886 20.9744C56.8693 20.8187 56.7069 20.6911 56.5014 20.5916C56.2959 20.4922 56.0391 20.4425 55.7308 20.4425C55.3099 20.4425 54.9586 20.5369 54.6768 20.7259C54.3951 20.9115 54.2543 21.1518 54.2543 21.4467C54.2543 21.7019 54.3487 21.9074 54.5376 22.0632C54.7266 22.219 55.0315 22.3466 55.4524 22.446L56.6655 22.7244C57.3681 22.8868 57.8918 23.1371 58.2365 23.4751C58.5812 23.8132 58.7536 24.2524 58.7536 24.7926C58.7536 25.25 58.621 25.6577 58.3558 26.0156C58.094 26.3703 57.7277 26.6487 57.2571 26.8509C56.7898 27.053 56.2479 27.1541 55.6314 27.1541C54.7763 27.1541 54.0786 26.9718 53.5384 26.6072C52.9981 26.2393 52.6667 25.7173 52.544 25.0412L53.9808 24.8224C54.0703 25.197 54.2543 25.4804 54.5327 25.6726C54.8111 25.8615 55.174 25.956 55.6214 25.956C56.1087 25.956 56.4981 25.8549 56.7898 25.6527C57.0814 25.4472 57.2273 25.197 57.2273 24.902C57.2273 24.6634 57.1378 24.4628 56.9588 24.3004C56.7831 24.138 56.513 24.0154 56.1484 23.9325L54.8558 23.6491C54.1432 23.4867 53.6162 23.2282 53.2749 22.8736C52.9368 22.5189 52.7678 22.0698 52.7678 21.5263C52.7678 21.0755 52.8937 20.6811 53.1456 20.343C53.3975 20.005 53.7455 19.7415 54.1896 19.5526C54.6338 19.3603 55.1425 19.2642 55.7159 19.2642C56.5412 19.2642 57.1908 19.4432 57.6648 19.8011C58.1387 20.1558 58.4519 20.6314 58.6044 21.228ZM63.8846 27.1541C63.1687 27.1541 62.5439 26.9901 62.0103 26.6619C61.4767 26.3338 61.0624 25.8748 60.7674 25.2848C60.4724 24.6948 60.3249 24.0054 60.3249 23.2166C60.3249 22.4245 60.4724 21.7318 60.7674 21.1385C61.0624 20.5452 61.4767 20.0845 62.0103 19.7564C62.5439 19.4283 63.1687 19.2642 63.8846 19.2642C64.6005 19.2642 65.2253 19.4283 65.7589 19.7564C66.2925 20.0845 66.7068 20.5452 67.0018 21.1385C67.2967 21.7318 67.4442 22.4245 67.4442 23.2166C67.4442 24.0054 67.2967 24.6948 67.0018 25.2848C66.7068 25.8748 66.2925 26.3338 65.7589 26.6619C65.2253 26.9901 64.6005 27.1541 63.8846 27.1541ZM63.8896 25.9062C64.3536 25.9062 64.738 25.7836 65.043 25.5384C65.3479 25.2931 65.5733 24.9666 65.7191 24.5589C65.8682 24.1513 65.9428 23.7022 65.9428 23.2116C65.9428 22.7244 65.8682 22.277 65.7191 21.8693C65.5733 21.4583 65.3479 21.1286 65.043 20.88C64.738 20.6314 64.3536 20.5071 63.8896 20.5071C63.4222 20.5071 63.0344 20.6314 62.7262 20.88C62.4213 21.1286 62.1942 21.4583 62.0451 21.8693C61.8993 22.277 61.8263 22.7244 61.8263 23.2116C61.8263 23.7022 61.8993 24.1513 62.0451 24.5589C62.1942 24.9666 62.4213 25.2931 62.7262 25.5384C63.0344 25.7836 63.4222 25.9062 63.8896 25.9062ZM69.3835 27V19.3636H70.8203V20.5767H70.8998C71.039 20.1657 71.2843 19.8426 71.6356 19.6072C71.9903 19.3686 72.3913 19.2493 72.8388 19.2493C72.9316 19.2493 73.0409 19.2526 73.1669 19.2592C73.2961 19.2659 73.3972 19.2741 73.4702 19.2841V20.706C73.4105 20.6894 73.3044 20.6712 73.152 20.6513C72.9995 20.6281 72.847 20.6165 72.6946 20.6165C72.3433 20.6165 72.03 20.6911 71.755 20.8402C71.4832 20.986 71.2677 21.1899 71.1086 21.4517C70.9496 21.7102 70.87 22.0052 70.87 22.3366V27H69.3835ZM75.0366 27V19.3636H76.5231V27H75.0366ZM75.7873 18.1854C75.5287 18.1854 75.3067 18.0992 75.1211 17.9268C74.9388 17.7512 74.8476 17.5424 74.8476 17.3004C74.8476 17.0552 74.9388 16.8464 75.1211 16.674C75.3067 16.4983 75.5287 16.4105 75.7873 16.4105C76.0458 16.4105 76.2662 16.4983 76.4485 16.674C76.6341 16.8464 76.7269 17.0552 76.7269 17.3004C76.7269 17.5424 76.6341 17.7512 76.4485 17.9268C76.2662 18.0992 76.0458 18.1854 75.7873 18.1854ZM82.0941 27.1541C81.3417 27.1541 80.6937 26.9934 80.1502 26.6719C79.6099 26.3471 79.1923 25.8913 78.8973 25.3047C78.6057 24.7147 78.4598 24.0237 78.4598 23.2315C78.4598 22.4493 78.6057 21.7599 78.8973 21.1634C79.1923 20.5668 79.6033 20.1011 80.1303 19.7663C80.6606 19.4316 81.2804 19.2642 81.9897 19.2642C82.4205 19.2642 82.8382 19.3355 83.2425 19.478C83.6469 19.6205 84.0098 19.8442 84.3313 20.1491C84.6528 20.4541 84.9063 20.8501 85.0919 21.3374C85.2775 21.8213 85.3704 22.4096 85.3704 23.1023V23.6293H79.3V22.5156H83.9137C83.9137 22.1245 83.8341 21.7782 83.675 21.4766C83.5159 21.1716 83.2922 20.9313 83.0039 20.7557C82.7188 20.58 82.3841 20.4922 81.9996 20.4922C81.582 20.4922 81.2174 20.5949 80.9059 20.8004C80.5976 21.0026 80.359 21.2678 80.19 21.5959C80.0242 21.9207 79.9414 22.2737 79.9414 22.6548V23.5249C79.9414 24.0353 80.0309 24.4695 80.2098 24.8274C80.3921 25.1854 80.6457 25.4588 80.9705 25.6477C81.2953 25.8333 81.6748 25.9261 82.109 25.9261C82.3907 25.9261 82.6476 25.8864 82.8796 25.8068C83.1116 25.724 83.3121 25.6013 83.4811 25.4389C83.6502 25.2765 83.7794 25.076 83.8689 24.8374L85.2759 25.0909C85.1632 25.5052 84.961 25.8681 84.6694 26.1797C84.381 26.4879 84.0181 26.7282 83.5806 26.9006C83.1464 27.0696 82.6509 27.1541 82.0941 27.1541ZM93.022 21.228L91.6747 21.4666C91.6183 21.2943 91.5288 21.1302 91.4062 20.9744C91.2869 20.8187 91.1245 20.6911 90.919 20.5916C90.7135 20.4922 90.4566 20.4425 90.1484 20.4425C89.7275 20.4425 89.3761 20.5369 89.0944 20.7259C88.8127 20.9115 88.6718 21.1518 88.6718 21.4467C88.6718 21.7019 88.7663 21.9074 88.9552 22.0632C89.1441 22.219 89.4491 22.3466 89.87 22.446L91.0831 22.7244C91.7857 22.8868 92.3094 23.1371 92.6541 23.4751C92.9988 23.8132 93.1711 24.2524 93.1711 24.7926C93.1711 25.25 93.0386 25.6577 92.7734 26.0156C92.5116 26.3703 92.1453 26.6487 91.6747 26.8509C91.2074 27.053 90.6654 27.1541 90.049 27.1541C89.1939 27.1541 88.4962 26.9718 87.9559 26.6072C87.4157 26.2393 87.0842 25.7173 86.9616 25.0412L88.3984 24.8224C88.4879 25.197 88.6718 25.4804 88.9503 25.6726C89.2287 25.8615 89.5916 25.956 90.039 25.956C90.5262 25.956 90.9157 25.8549 91.2074 25.6527C91.499 25.4472 91.6449 25.197 91.6449 24.902C91.6449 24.6634 91.5554 24.4628 91.3764 24.3004C91.2007 24.138 90.9306 24.0154 90.566 23.9325L89.2734 23.6491C88.5608 23.4867 88.0338 23.2282 87.6924 22.8736C87.3544 22.5189 87.1853 22.0698 87.1853 21.5263C87.1853 21.0755 87.3113 20.6811 87.5632 20.343C87.8151 20.005 88.1631 19.7415 88.6072 19.5526C89.0513 19.3603 89.5601 19.2642 90.1335 19.2642C90.9588 19.2642 91.6084 19.4432 92.0824 19.8011C92.5563 20.1558 92.8695 20.6314 93.022 21.228Z" fill="#595959"/>
</svg>
