<svg width="18" height="18" viewBox="0 0 18 18" fill="none" xmlns="http://www.w3.org/2000/svg">
<path fill-rule="evenodd" clip-rule="evenodd" d="M9 0.730469C4.51583 0.730469 0.875 4.3713 0.875 8.85547C0.875 13.3405 4.51583 16.9805 9 16.9805C13.4842 16.9805 17.125 13.3405 17.125 8.85547C17.125 4.3713 13.4842 0.730469 9 0.730469ZM9 1.98047C12.7942 1.98047 15.875 5.0613 15.875 8.85547C15.875 12.6505 12.7942 15.7305 9 15.7305C5.20583 15.7305 2.125 12.6505 2.125 8.85547C2.125 5.0613 5.20583 1.98047 9 1.98047Z" fill="#5D616C"/>
<path fill-rule="evenodd" clip-rule="evenodd" d="M8 4.73047V8.48047C8 8.6463 8.06583 8.80547 8.18333 8.92297L11.1833 11.923C11.4267 12.1663 11.8233 12.1663 12.0667 11.923C12.3108 11.6788 12.3108 11.283 12.0667 11.0388L9.25 8.22214V4.73047C9.25 4.38547 8.97 4.10547 8.625 4.10547C8.28 4.10547 8 4.38547 8 4.73047Z" fill="#5D616C"/>
<path fill-rule="evenodd" clip-rule="evenodd" d="M14.1475 1.10747L15.915 2.87581C16.1591 3.11914 16.555 3.11914 16.7991 2.87581C17.0425 2.63164 17.0425 2.23581 16.7991 1.99164L15.0308 0.224141C14.7875 -0.020026 14.3908 -0.020026 14.1475 0.224141C13.9033 0.467474 13.9033 0.864141 14.1475 1.10747Z" fill="#5D616C"/>
<path fill-rule="evenodd" clip-rule="evenodd" d="M2.96914 0.224141L1.20081 1.99164C0.957477 2.23581 0.957477 2.63164 1.20081 2.87581C1.44498 3.11914 1.84081 3.11914 2.08498 2.87581L3.85248 1.10747C4.09664 0.864141 4.09664 0.467474 3.85248 0.224141C3.60914 -0.020026 3.21248 -0.020026 2.96914 0.224141Z" fill="#5D616C"/>
<path fill-rule="evenodd" clip-rule="evenodd" d="M13.095 15.6408L14.7617 17.7241C14.9775 17.9933 15.3708 18.0366 15.6408 17.8216C15.91 17.6058 15.9533 17.2125 15.7383 16.9425L14.0717 14.8591C13.8558 14.59 13.4625 14.5466 13.1925 14.7616C12.9233 14.9775 12.88 15.3708 13.095 15.6408Z" fill="#5D616C"/>
<path fill-rule="evenodd" clip-rule="evenodd" d="M3.92831 14.8591L2.26164 16.9425C2.04664 17.2125 2.08997 17.6058 2.35914 17.8216C2.62914 18.0366 3.02247 17.9933 3.23831 17.7241L4.90497 15.6408C5.11997 15.3708 5.07664 14.9775 4.80747 14.7616C4.53747 14.5466 4.14414 14.59 3.92831 14.8591Z" fill="#5D616C"/>
</svg>
