<svg width="18" height="16" viewBox="0 0 18 16" fill="none" xmlns="http://www.w3.org/2000/svg">
<path fill-rule="evenodd" clip-rule="evenodd" d="M9.94585 2.79102C9.60502 2.79102 9.28585 2.62435 9.09085 2.34518L8.34335 1.27268C7.91502 0.657682 7.21252 0.291016 6.46335 0.291016C5.41919 0.291016 3.64419 0.291016 2.33335 0.291016C1.06752 0.291016 0.041687 1.31685 0.041687 2.58268V13.416C0.041687 14.0235 0.283354 14.6068 0.71252 15.0368C1.14252 15.466 1.72585 15.7077 2.33335 15.7077H15.6667C16.2742 15.7077 16.8575 15.466 17.2875 15.0368C17.7167 14.6068 17.9584 14.0235 17.9584 13.416V5.08268C17.9584 4.47518 17.7167 3.89185 17.2875 3.46185C16.8575 3.03268 16.2742 2.79102 15.6667 2.79102H9.94585ZM9.94585 4.04102H15.6667C15.9434 4.04102 16.2075 4.15102 16.4034 4.34602C16.5984 4.54185 16.7084 4.80602 16.7084 5.08268V13.416C16.7084 13.6927 16.5984 13.9569 16.4034 14.1527C16.2075 14.3477 15.9434 14.4577 15.6667 14.4577H2.33335C2.05669 14.4577 1.79252 14.3477 1.59669 14.1527C1.40169 13.9569 1.29169 13.6927 1.29169 13.416V2.58268C1.29169 2.00768 1.75835 1.54102 2.33335 1.54102H6.46335C6.80419 1.54102 7.12335 1.70768 7.31835 1.98685L8.06585 3.05935C8.49419 3.67435 9.19585 4.04102 9.94585 4.04102Z" fill="#5D616C"/>
<path fill-rule="evenodd" clip-rule="evenodd" d="M6.79004 8.3401L10.3259 11.8759C10.57 12.1193 10.9659 12.1193 11.21 11.8759C11.4534 11.6318 11.4534 11.2359 11.21 10.9918L7.67421 7.45594C7.43004 7.2126 7.03421 7.2126 6.79004 7.45594C6.54671 7.7001 6.54671 8.09594 6.79004 8.3401Z" fill="#5D616C"/>
<path fill-rule="evenodd" clip-rule="evenodd" d="M7.67421 11.8759L11.21 8.3401C11.4534 8.09594 11.4534 7.7001 11.21 7.45594C10.9659 7.2126 10.57 7.2126 10.3259 7.45594L6.79004 10.9918C6.54671 11.2359 6.54671 11.6318 6.79004 11.8759C7.03421 12.1193 7.43004 12.1193 7.67421 11.8759Z" fill="#5D616C"/>
</svg>
