<svg width="24" height="24" viewBox="0 0 24 24" fill="none" xmlns="http://www.w3.org/2000/svg">
<path fill-rule="evenodd" clip-rule="evenodd" d="M20.4719 7.32255C18.6903 9.10419 14.5085 13.2851 13.4886 14.3016C13.2682 14.5212 13.0059 14.6947 12.7243 14.8078C11.9064 15.1472 9.91109 15.9299 9.32447 15.9693C8.97501 15.9928 8.63226 15.8637 8.3842 15.6157C8.13615 15.3676 8.00709 15.0249 8.03055 14.6754C8.06994 14.0888 8.85266 12.0951 9.1862 11.2806C9.30268 10.9914 9.47615 10.7291 9.69655 10.5096L16.6773 3.52796C17.0151 3.19023 17.4743 3 17.952 3C18.4296 3 18.8889 3.19023 19.2266 3.52796L20.4719 4.77327C20.8096 5.11099 20.9999 5.57023 20.9999 6.04791C20.9999 6.52558 20.8096 6.98482 20.4719 7.32255ZM9.29011 14.7098C9.86332 14.6377 11.5385 13.9388 12.2425 13.6463C12.245 13.6455 12.2475 13.6446 12.2492 13.6438C12.3808 13.591 12.4998 13.5122 12.5995 13.4125L12.6003 13.4117C13.6219 12.3951 17.802 8.21505 19.5828 6.4334C19.685 6.33116 19.7428 6.19289 19.7428 6.04791C19.7428 5.90293 19.685 5.76465 19.5828 5.66241L18.3375 4.4171C18.2352 4.31487 18.0969 4.25704 17.952 4.25704C17.807 4.25704 17.6687 4.31487 17.5665 4.4171L10.5849 11.3987C10.4843 11.4984 10.4055 11.6183 10.3527 11.7498L10.3511 11.7532C10.0619 12.4588 9.36218 14.1357 9.29011 14.7098Z" fill="white"/>
<path fill-rule="evenodd" clip-rule="evenodd" d="M18.8118 8.09385C19.0565 8.3394 19.0565 8.73746 18.8118 8.983C18.5662 9.22854 18.1681 9.22854 17.9226 8.983L15.0172 6.07756C14.7716 5.83202 14.7716 5.43395 15.0172 5.18841C15.2627 4.94371 15.6608 4.94371 15.9063 5.18841L18.8118 8.09385Z" fill="white"/>
<path fill-rule="evenodd" clip-rule="evenodd" d="M13.6825 13.2234C13.928 13.4681 13.928 13.867 13.6825 14.1117C13.4378 14.3572 13.0389 14.3572 12.7942 14.1117L9.88875 11.2063C9.6432 10.9616 9.6432 10.5626 9.88875 10.3179C10.1335 10.0724 10.5324 10.0724 10.7771 10.3179L13.6825 13.2234Z" fill="white"/>
<path fill-rule="evenodd" clip-rule="evenodd" d="M9.0757 4.6582C9.42265 4.6582 9.70422 4.93978 9.70422 5.28672C9.70422 5.63367 9.42265 5.91524 9.0757 5.91524H6.1426C5.10094 5.91524 4.25704 6.75914 4.25704 7.80081V17.8571C4.25704 18.3574 4.45565 18.8368 4.8093 19.1904C5.16295 19.5441 5.6423 19.7427 6.1426 19.7427H17.037C17.5373 19.7427 18.0166 19.5441 18.3703 19.1904C18.7239 18.8368 18.9225 18.3574 18.9225 17.8571V14.924C18.9225 14.5771 19.2041 14.2955 19.5511 14.2955C19.898 14.2955 20.1796 14.5771 20.1796 14.924V17.8571C20.1796 18.691 19.8486 19.4896 19.2594 20.0796C18.6694 20.6687 17.8708 20.9997 17.037 20.9997H6.1426C5.30877 20.9997 4.51013 20.6687 3.92015 20.0796C3.33102 19.4896 3 18.691 3 17.8571V7.80081C3 6.06525 4.40705 4.6582 6.1426 4.6582H9.0757Z" fill="white"/>
</svg>
