<svg width="18" height="16" viewBox="0 0 18 16" fill="none" xmlns="http://www.w3.org/2000/svg">
<path fill-rule="evenodd" clip-rule="evenodd" d="M15.25 0.708984C16.745 0.708984 17.9584 1.92232 17.9584 3.41732C17.9584 4.91232 16.745 6.12565 15.25 6.12565C13.755 6.12565 12.5417 4.91232 12.5417 3.41732C12.5417 1.92232 13.755 0.708984 15.25 0.708984ZM15.25 1.95898C14.445 1.95898 13.7917 2.61232 13.7917 3.41732C13.7917 4.22232 14.445 4.87565 15.25 4.87565C16.055 4.87565 16.7084 4.22232 16.7084 3.41732C16.7084 2.61232 16.055 1.95898 15.25 1.95898Z" fill="#5D616C"/>
<path fill-rule="evenodd" clip-rule="evenodd" d="M11.5 2.79297C11.845 2.79297 12.125 3.07297 12.125 3.41797C12.125 3.76297 11.845 4.04297 11.5 4.04297H1.91669C1.75085 4.04297 1.59169 4.1088 1.47502 4.2263C1.35752 4.34297 1.29169 4.50214 1.29169 4.66797V13.418C1.29169 13.5838 1.35752 13.743 1.47502 13.8596C1.59169 13.9771 1.75085 14.043 1.91669 14.043H16.0834C16.2492 14.043 16.4084 13.9771 16.525 13.8596C16.6425 13.743 16.7084 13.5838 16.7084 13.418V6.7513C16.7084 6.4063 16.9884 6.1263 17.3334 6.1263C17.6784 6.1263 17.9584 6.4063 17.9584 6.7513V13.418C17.9584 13.9155 17.7609 14.3921 17.4092 14.7438C17.0575 15.0955 16.5809 15.293 16.0834 15.293H1.91669C1.41919 15.293 0.94252 15.0955 0.590854 14.7438C0.239187 14.3921 0.041687 13.9155 0.041687 13.418V4.66797C0.041687 4.17047 0.239187 3.6938 0.590854 3.34214C0.94252 2.99047 1.41919 2.79297 1.91669 2.79297H11.5Z" fill="#5D616C"/>
<path fill-rule="evenodd" clip-rule="evenodd" d="M12.7917 6.04273C13.0675 5.83606 13.46 5.89189 13.6667 6.16773C13.8734 6.44356 13.8175 6.83606 13.5417 7.04273L9.87504 9.79273C9.35671 10.1819 8.64338 10.1819 8.12504 9.79273L0.708375 4.23023C0.432542 4.02356 0.376708 3.63106 0.583375 3.35523C0.790042 3.07939 1.18254 3.02356 1.45837 3.23023L8.87504 8.79273C8.94921 8.84856 9.05087 8.84856 9.12504 8.79273L12.7917 6.04273Z" fill="#5D616C"/>
<path fill-rule="evenodd" clip-rule="evenodd" d="M17.4159 13.8391C17.6425 14.0991 17.615 14.4949 17.355 14.7216C17.095 14.9474 16.7 14.9207 16.4734 14.6607L11.0284 8.41075C10.8025 8.15075 10.8292 7.75491 11.0892 7.52825C11.3492 7.30241 11.745 7.32908 11.9717 7.58908L17.4159 13.8391Z" fill="#5D616C"/>
<path fill-rule="evenodd" clip-rule="evenodd" d="M1.52669 14.6607C1.30002 14.9207 0.905021 14.9474 0.645021 14.7216C0.385021 14.4949 0.357521 14.0991 0.584187 13.8391L6.02835 7.58908C6.25502 7.32908 6.65085 7.30241 6.91085 7.52825C7.17085 7.75491 7.19752 8.15075 6.97169 8.41075L1.52669 14.6607Z" fill="#5D616C"/>
</svg>
