<svg width="28" height="28" viewBox="0 0 28 28" fill="none" xmlns="http://www.w3.org/2000/svg">
<g id="fi_624727" clip-path="url(#clip0_2040_5437)">
<g id="Group">
<g id="Group_2">
<path id="Vector" d="M14.5834 0C14.2614 0 14 0.261352 14 0.583352V13.4167C14 13.7387 14.2614 14.0001 14.5834 14.0001H27.4167C27.7387 14.0001 28.0001 13.7387 28.0001 13.4167C28 6.01885 21.9811 0 14.5834 0Z" fill="#D42124"/>
</g>
</g>
<g id="Group_3">
<g id="Group_4">
<path id="Vector_2" d="M20.8775 24.7251L12.8334 14.3838V1.74998C12.8334 1.42798 12.572 1.16663 12.25 1.16663C5.495 1.16663 0 7.18548 0 14.5833C0 21.9811 6.01885 28 13.4166 28C16.7265 28 18.5173 27.4003 20.7865 25.5336C21.0304 25.333 21.0711 24.9748 20.8775 24.7251Z" fill="#D42124"/>
</g>
</g>
<g id="Group_5">
<g id="Group_6">
<path id="Vector_3" d="M27.4158 15.1667H15.7491C15.5251 15.1667 15.3198 15.2962 15.223 15.4992C15.1262 15.7022 15.1541 15.9426 15.2965 16.1164L22.8798 25.5045C22.9813 25.6305 23.1307 25.7087 23.2928 25.7204C23.3068 25.7215 23.3197 25.7215 23.3337 25.7215C23.4807 25.7215 23.623 25.6655 23.7315 25.5652C26.4428 23.0347 27.9991 19.4577 27.9991 15.7501C27.9991 15.4281 27.7378 15.1667 27.4158 15.1667Z" fill="#D42124"/>
</g>
</g>
</g>
<defs>
<clipPath id="clip0_2040_5437">
<rect width="28" height="28" fill="white"/>
</clipPath>
</defs>
</svg>
