<svg width="20" height="20" viewBox="0 0 20 20" fill="none" xmlns="http://www.w3.org/2000/svg">
<path fill-rule="evenodd" clip-rule="evenodd" d="M10 3.7207C13.4652 3.7207 16.2791 6.53464 16.2791 9.99977C16.2791 13.4649 13.4652 16.2788 10 16.2788C6.53488 16.2788 3.72095 13.4649 3.72095 9.99977C3.72095 6.53464 6.53488 3.7207 10 3.7207ZM10 5.11605C7.3042 5.11605 5.1163 7.30396 5.1163 9.99977C5.1163 12.6956 7.3042 14.8835 10 14.8835C12.6958 14.8835 14.8837 12.6956 14.8837 9.99977C14.8837 7.30396 12.6958 5.11605 10 5.11605Z" fill="#5D616C"/>
<path fill-rule="evenodd" clip-rule="evenodd" d="M16.0233 3.85766C15.7479 3.58789 15.7442 3.14605 16.014 2.8707C16.2828 2.59626 16.7256 2.59163 17 2.8614C18.8512 4.67626 20 7.20558 20 10C20 15.5191 15.5191 20 10 20C4.48095 20 0 15.5191 0 10C0 4.48091 4.48091 0 10 0C10.3851 0 10.6977 0.312558 10.6977 0.697674C10.6977 1.08279 10.3851 1.39535 10 1.39535C5.25114 1.39535 1.39535 5.25114 1.39535 10C1.39535 14.7489 5.25114 18.6047 10 18.6047C14.7489 18.6047 18.6047 14.7488 18.6047 10C18.6047 7.59537 17.6158 5.41953 16.0233 3.85766Z" fill="#5D616C"/>
<path fill-rule="evenodd" clip-rule="evenodd" d="M9.30231 4.41838C9.30231 4.03326 9.61487 3.7207 9.99998 3.7207C10.3851 3.7207 10.6977 4.03326 10.6977 4.41838V5.34861C10.6977 5.73373 10.3851 6.04628 9.99998 6.04628C9.61487 6.04628 9.30231 5.73373 9.30231 5.34861V4.41838Z" fill="#5D616C"/>
<path fill-rule="evenodd" clip-rule="evenodd" d="M4.41862 10.6981C4.03351 10.6981 3.72095 10.3855 3.72095 10.0004C3.72095 9.61529 4.03351 9.30273 4.41862 9.30273H5.34885C5.73397 9.30273 6.04653 9.61529 6.04653 10.0004C6.04653 10.3855 5.73397 10.6981 5.34885 10.6981H4.41862Z" fill="#5D616C"/>
<path fill-rule="evenodd" clip-rule="evenodd" d="M9.30231 14.6508C9.30231 14.2657 9.61487 13.9531 9.99998 13.9531C10.3851 13.9531 10.6977 14.2657 10.6977 14.6508V15.581C10.6977 15.9661 10.3851 16.2787 9.99998 16.2787C9.61487 16.2787 9.30231 15.9661 9.30231 15.581V14.6508Z" fill="#5D616C"/>
<path fill-rule="evenodd" clip-rule="evenodd" d="M14.6512 10.6981C14.266 10.6981 13.9535 10.3855 13.9535 10.0004C13.9535 9.61529 14.266 9.30273 14.6512 9.30273H15.5814C15.9665 9.30273 16.2791 9.61529 16.2791 10.0004C16.2791 10.3855 15.9665 10.6981 15.5814 10.6981H14.6512Z" fill="#5D616C"/>
<path fill-rule="evenodd" clip-rule="evenodd" d="M9.30231 7.67424C9.30231 7.28912 9.61487 6.97656 9.99998 6.97656C10.3851 6.97656 10.6977 7.28912 10.6977 7.67424V9.7105L11.8884 10.9021C12.1609 11.1738 12.1609 11.6166 11.8884 11.8882C11.6167 12.1607 11.1739 12.1607 10.9023 11.8882L9.50696 10.4928C9.37581 10.3626 9.30231 10.185 9.30231 9.99982V7.67424Z" fill="#5D616C"/>
<path fill-rule="evenodd" clip-rule="evenodd" d="M17.907 1.86133C18.2921 1.86133 18.6047 2.17389 18.6047 2.559C18.6047 2.94412 18.2921 3.25668 17.907 3.25668H16.2791V4.88458C16.2791 5.2697 15.9665 5.58226 15.5814 5.58226C15.1963 5.58226 14.8837 5.2697 14.8837 4.88458V2.559C14.8837 2.17389 15.1963 1.86133 15.5814 1.86133H17.907Z" fill="#5D616C"/>
</svg>
