<svg width="18" height="14" viewBox="0 0 18 14" fill="none" xmlns="http://www.w3.org/2000/svg">
<path fill-rule="evenodd" clip-rule="evenodd" d="M17.9584 2.83268C17.9584 2.22518 17.7167 1.64185 17.2875 1.21185C16.8575 0.782682 16.2742 0.541016 15.6667 0.541016C12.4734 0.541016 5.52669 0.541016 2.33335 0.541016C1.72585 0.541016 1.14252 0.782682 0.71252 1.21185C0.283354 1.64185 0.041687 2.22518 0.041687 2.83268V11.166C0.041687 11.7735 0.283354 12.3568 0.71252 12.7868C1.14252 13.216 1.72585 13.4577 2.33335 13.4577H15.6667C16.2742 13.4577 16.8575 13.216 17.2875 12.7868C17.7167 12.3568 17.9584 11.7735 17.9584 11.166V2.83268ZM16.7084 2.83268V11.166C16.7084 11.4427 16.5984 11.7069 16.4034 11.9027C16.2075 12.0977 15.9434 12.2077 15.6667 12.2077H2.33335C2.05669 12.2077 1.79252 12.0977 1.59669 11.9027C1.40169 11.7069 1.29169 11.4427 1.29169 11.166V2.83268C1.29169 2.55602 1.40169 2.29185 1.59669 2.09602C1.79252 1.90102 2.05669 1.79102 2.33335 1.79102H15.6667C15.9434 1.79102 16.2075 1.90102 16.4034 2.09602C16.5984 2.29185 16.7084 2.55602 16.7084 2.83268Z" fill="#5D616C"/>
<path fill-rule="evenodd" clip-rule="evenodd" d="M8.37504 5.74935C8.37504 5.36268 8.22171 4.99185 7.94754 4.71852C7.67421 4.44435 7.30337 4.29102 6.91671 4.29102C6.19087 4.29102 5.14254 4.29102 4.41671 4.29102C4.03004 4.29102 3.65921 4.44435 3.38587 4.71852C3.11171 4.99185 2.95837 5.36268 2.95837 5.74935V8.24935C2.95837 8.63602 3.11171 9.00685 3.38587 9.28018C3.65921 9.55435 4.03004 9.70768 4.41671 9.70768H6.91671C7.30337 9.70768 7.67421 9.55435 7.94754 9.28018C8.22171 9.00685 8.37504 8.63602 8.37504 8.24935V5.74935ZM7.12504 5.74935V8.24935C7.12504 8.30435 7.10337 8.35768 7.06421 8.39685C7.02504 8.43602 6.97171 8.45768 6.91671 8.45768H4.41671C4.36171 8.45768 4.30837 8.43602 4.26921 8.39685C4.23004 8.35768 4.20837 8.30435 4.20837 8.24935V5.74935C4.20837 5.69435 4.23004 5.64102 4.26921 5.60185C4.30837 5.56268 4.36171 5.54102 4.41671 5.54102H6.91671C6.97171 5.54102 7.02504 5.56268 7.06421 5.60185C7.10337 5.64102 7.12504 5.69435 7.12504 5.74935Z" fill="#5D616C"/>
<path fill-rule="evenodd" clip-rule="evenodd" d="M10.6667 5.95703H14.8334C15.1784 5.95703 15.4584 5.67703 15.4584 5.33203C15.4584 4.98703 15.1784 4.70703 14.8334 4.70703H10.6667C10.3217 4.70703 10.0417 4.98703 10.0417 5.33203C10.0417 5.67703 10.3217 5.95703 10.6667 5.95703Z" fill="#5D616C"/>
<path fill-rule="evenodd" clip-rule="evenodd" d="M10.6667 8.45703H13.1667C13.5117 8.45703 13.7917 8.17703 13.7917 7.83203C13.7917 7.48703 13.5117 7.20703 13.1667 7.20703H10.6667C10.3217 7.20703 10.0417 7.48703 10.0417 7.83203C10.0417 8.17703 10.3217 8.45703 10.6667 8.45703Z" fill="#5D616C"/>
</svg>
