<svg width="40" height="40" viewBox="0 0 40 40" fill="none" xmlns="http://www.w3.org/2000/svg">
<rect width="40" height="40" rx="4" fill="white"/>
<path d="M10.6667 27H23.5C24.1417 27 24.6667 26.475 24.6667 25.8333C24.6667 25.1917 24.1417 24.6667 23.5 24.6667H10.6667C10.025 24.6667 9.5 25.1917 9.5 25.8333C9.5 26.475 10.025 27 10.6667 27ZM10.6667 21.1667H20C20.6417 21.1667 21.1667 20.6417 21.1667 20C21.1667 19.3583 20.6417 18.8333 20 18.8333H10.6667C10.025 18.8333 9.5 19.3583 9.5 20C9.5 20.6417 10.025 21.1667 10.6667 21.1667ZM9.5 14.1667C9.5 14.8083 10.025 15.3333 10.6667 15.3333H23.5C24.1417 15.3333 24.6667 14.8083 24.6667 14.1667C24.6667 13.525 24.1417 13 23.5 13H10.6667C10.025 13 9.5 13.525 9.5 14.1667ZM29.6833 23.36L26.3233 20L29.6833 16.64C29.7913 16.532 29.877 16.4038 29.9355 16.2626C29.9939 16.1215 30.024 15.9703 30.024 15.8175C30.024 15.6647 29.9939 15.5135 29.9355 15.3724C29.877 15.2312 29.7913 15.103 29.6833 14.995C29.5753 14.887 29.4471 14.8013 29.306 14.7429C29.1648 14.6844 29.0136 14.6543 28.8608 14.6543C28.7081 14.6543 28.5568 14.6844 28.4157 14.7429C28.2746 14.8013 28.1463 14.887 28.0383 14.995L23.85 19.1833C23.7418 19.2913 23.656 19.4195 23.5975 19.5606C23.5389 19.7017 23.5088 19.853 23.5088 20.0058C23.5088 20.1586 23.5389 20.3099 23.5975 20.4511C23.656 20.5922 23.7418 20.7204 23.85 20.8283L28.0383 25.0167C28.4933 25.4717 29.2283 25.4717 29.6833 25.0167C30.1267 24.5617 30.1383 23.815 29.6833 23.36Z" fill="#595959"/>
</svg>
