<svg width="18" height="18" viewBox="0 0 18 18" fill="none" xmlns="http://www.w3.org/2000/svg">
<path fill-rule="evenodd" clip-rule="evenodd" d="M8.375 0.666016V5.66602C8.375 6.01102 8.655 6.29102 9 6.29102C9.345 6.29102 9.625 6.01102 9.625 5.66602V0.666016C9.625 0.321016 9.345 0.0410156 9 0.0410156C8.655 0.0410156 8.375 0.321016 8.375 0.666016Z" fill="#5D616C"/>
<path fill-rule="evenodd" clip-rule="evenodd" d="M6.89167 4.44146L8.55833 6.10812C8.8025 6.35229 9.1975 6.35229 9.44167 6.10812L11.1083 4.44146C11.3525 4.19813 11.3525 3.80146 11.1083 3.55813C10.865 3.31396 10.4683 3.31396 10.225 3.55813L9 4.78229L7.775 3.55813C7.53167 3.31396 7.135 3.31396 6.89167 3.55813C6.6475 3.80146 6.6475 4.19813 6.89167 4.44146Z" fill="#5D616C"/>
<path fill-rule="evenodd" clip-rule="evenodd" d="M15.0225 8.16602C15.0225 7.82102 14.7425 7.54102 14.3975 7.54102H3.6025C3.2575 7.54102 2.9775 7.82102 2.9775 8.16602V17.3327C2.9775 17.6777 3.2575 17.9577 3.6025 17.9577H14.3975C14.7425 17.9577 15.0225 17.6777 15.0225 17.3327V8.16602ZM13.7725 8.79102V16.7077H4.2275V8.79102H13.7725Z" fill="#5D616C"/>
<path fill-rule="evenodd" clip-rule="evenodd" d="M11.2917 8.16602C11.2917 7.82102 11.0117 7.54102 10.6667 7.54102H7.33334C6.98834 7.54102 6.70834 7.82102 6.70834 8.16602V11.0827C6.70834 11.4277 6.98834 11.7077 7.33334 11.7077H10.6667C11.0117 11.7077 11.2917 11.4277 11.2917 11.0827V8.16602ZM10.0417 8.79102V10.4577H7.95834V8.79102H10.0417Z" fill="#5D616C"/>
<path fill-rule="evenodd" clip-rule="evenodd" d="M14.84 8.60747L17.34 6.10747C17.5833 5.86414 17.5833 5.46747 17.34 5.22414C17.0958 4.97997 16.7 4.97997 16.4558 5.22414L13.9558 7.72414C13.7117 7.96747 13.7117 8.36414 13.9558 8.60747C14.2 8.85164 14.5958 8.85164 14.84 8.60747Z" fill="#5D616C"/>
<path fill-rule="evenodd" clip-rule="evenodd" d="M4.04417 7.72414L1.54417 5.22414C1.3 4.97997 0.904168 4.97997 0.660001 5.22414C0.416668 5.46747 0.416668 5.86414 0.660001 6.10747L3.16 8.60747C3.40417 8.85164 3.8 8.85164 4.04417 8.60747C4.28833 8.36414 4.28833 7.96747 4.04417 7.72414Z" fill="#5D616C"/>
<path fill-rule="evenodd" clip-rule="evenodd" d="M6.08334 15.875H7.75C8.095 15.875 8.375 15.595 8.375 15.25C8.375 14.905 8.095 14.625 7.75 14.625H6.08334C5.73834 14.625 5.45834 14.905 5.45834 15.25C5.45834 15.595 5.73834 15.875 6.08334 15.875Z" fill="#5D616C"/>
</svg>
