<svg width="102" height="44" viewBox="0 0 102 44" fill="none" xmlns="http://www.w3.org/2000/svg">
<rect x="0.5" y="0.5" width="101" height="43" rx="7.5" fill="white" stroke="#F0CCD0"/>
<path d="M16.2789 27V16.8182H19.9081C20.7003 16.8182 21.3565 16.9624 21.8769 17.2507C22.3973 17.5391 22.7867 17.9335 23.0452 18.4339C23.3037 18.9311 23.433 19.4912 23.433 20.1143C23.433 20.7408 23.3021 21.3042 23.0402 21.8047C22.7817 22.3018 22.3906 22.6963 21.867 22.9879C21.3466 23.2763 20.692 23.4205 19.9032 23.4205H17.4074V22.1179H19.764C20.2644 22.1179 20.6705 22.0317 20.982 21.8594C21.2936 21.6837 21.5223 21.4451 21.6681 21.1435C21.8139 20.8419 21.8868 20.4988 21.8868 20.1143C21.8868 19.7299 21.8139 19.3885 21.6681 19.0902C21.5223 18.7919 21.2919 18.5582 20.977 18.3892C20.6655 18.2202 20.2545 18.1357 19.7441 18.1357H17.8151V27H16.2789ZM27.5486 27.169C27.0647 27.169 26.6272 27.0795 26.2361 26.9006C25.845 26.7183 25.5351 26.4548 25.3064 26.1101C25.081 25.7654 24.9683 25.3428 24.9683 24.8423C24.9683 24.4115 25.0512 24.0568 25.2169 23.7784C25.3826 23.5 25.6063 23.2796 25.8881 23.1172C26.1698 22.9548 26.4847 22.8321 26.8327 22.7493C27.1807 22.6664 27.5353 22.6035 27.8966 22.5604C28.354 22.5073 28.7252 22.4643 29.0102 22.4311C29.2953 22.3946 29.5024 22.3366 29.6317 22.2571C29.7609 22.1776 29.8256 22.0483 29.8256 21.8693V21.8345C29.8256 21.4003 29.7029 21.0639 29.4577 20.8253C29.2157 20.5866 28.8545 20.4673 28.3739 20.4673C27.8734 20.4673 27.479 20.5784 27.1906 20.8004C26.9056 21.0192 26.7084 21.2628 26.599 21.5312L25.202 21.2131C25.3677 20.7491 25.6097 20.3745 25.9278 20.0895C26.2493 19.8011 26.6189 19.5923 27.0365 19.4631C27.4541 19.3305 27.8933 19.2642 28.354 19.2642C28.6589 19.2642 28.9821 19.3007 29.3234 19.3736C29.6681 19.4432 29.9896 19.5724 30.2879 19.7614C30.5895 19.9503 30.8365 20.2204 31.0287 20.5717C31.2209 20.9197 31.317 21.3722 31.317 21.929V27H29.8653V25.956H29.8057C29.7096 26.1482 29.5654 26.3371 29.3732 26.5227C29.1809 26.7083 28.934 26.8625 28.6324 26.9851C28.3308 27.1077 27.9695 27.169 27.5486 27.169ZM27.8717 25.9759C28.2827 25.9759 28.634 25.8946 28.9257 25.7322C29.2207 25.5698 29.4444 25.3577 29.5969 25.0959C29.7527 24.8307 29.8305 24.5473 29.8305 24.2457V23.2614C29.7775 23.3144 29.6748 23.3641 29.5223 23.4105C29.3732 23.4536 29.2025 23.4917 29.0102 23.5249C28.818 23.5547 28.6307 23.5829 28.4484 23.6094C28.2662 23.6326 28.1137 23.6525 27.9911 23.669C27.7027 23.7055 27.4392 23.7668 27.2006 23.853C26.9653 23.9392 26.7763 24.0634 26.6338 24.2259C26.4946 24.3849 26.425 24.5971 26.425 24.8622C26.425 25.2301 26.5609 25.5085 26.8327 25.6974C27.1045 25.883 27.4508 25.9759 27.8717 25.9759ZM33.577 27V19.3636H35.0138V20.5767H35.0933C35.2325 20.1657 35.4778 19.8426 35.8291 19.6072C36.1838 19.3686 36.5848 19.2493 37.0322 19.2493C37.125 19.2493 37.2344 19.2526 37.3604 19.2592C37.4896 19.2659 37.5907 19.2741 37.6636 19.2841V20.706C37.604 20.6894 37.4979 20.6712 37.3455 20.6513C37.193 20.6281 37.0405 20.6165 36.8881 20.6165C36.5367 20.6165 36.2235 20.6911 35.9484 20.8402C35.6767 20.986 35.4612 21.1899 35.3021 21.4517C35.143 21.7102 35.0635 22.0052 35.0635 22.3366V27H33.577ZM41.384 27.169C40.9001 27.169 40.4626 27.0795 40.0715 26.9006C39.6804 26.7183 39.3705 26.4548 39.1418 26.1101C38.9164 25.7654 38.8037 25.3428 38.8037 24.8423C38.8037 24.4115 38.8866 24.0568 39.0523 23.7784C39.218 23.5 39.4417 23.2796 39.7235 23.1172C40.0052 22.9548 40.3201 22.8321 40.6681 22.7493C41.0161 22.6664 41.3707 22.6035 41.732 22.5604C42.1894 22.5073 42.5606 22.4643 42.8456 22.4311C43.1307 22.3946 43.3378 22.3366 43.4671 22.2571C43.5963 22.1776 43.661 22.0483 43.661 21.8693V21.8345C43.661 21.4003 43.5383 21.0639 43.2931 20.8253C43.0511 20.5866 42.6898 20.4673 42.2093 20.4673C41.7088 20.4673 41.3144 20.5784 41.026 20.8004C40.741 21.0192 40.5438 21.2628 40.4344 21.5312L39.0374 21.2131C39.2031 20.7491 39.4451 20.3745 39.7632 20.0895C40.0847 19.8011 40.4543 19.5923 40.8719 19.4631C41.2895 19.3305 41.7287 19.2642 42.1894 19.2642C42.4943 19.2642 42.8175 19.3007 43.1588 19.3736C43.5035 19.4432 43.825 19.5724 44.1233 19.7614C44.4249 19.9503 44.6719 20.2204 44.8641 20.5717C45.0563 20.9197 45.1524 21.3722 45.1524 21.929V27H43.7007V25.956H43.6411C43.545 26.1482 43.4008 26.3371 43.2085 26.5227C43.0163 26.7083 42.7694 26.8625 42.4678 26.9851C42.1662 27.1077 41.8049 27.169 41.384 27.169ZM41.7071 25.9759C42.1181 25.9759 42.4694 25.8946 42.7611 25.7322C43.0561 25.5698 43.2798 25.3577 43.4323 25.0959C43.588 24.8307 43.6659 24.5473 43.6659 24.2457V23.2614C43.6129 23.3144 43.5102 23.3641 43.3577 23.4105C43.2085 23.4536 43.0379 23.4917 42.8456 23.5249C42.6534 23.5547 42.4661 23.5829 42.2838 23.6094C42.1015 23.6326 41.9491 23.6525 41.8264 23.669C41.5381 23.7055 41.2746 23.7668 41.036 23.853C40.8006 23.9392 40.6117 24.0634 40.4692 24.2259C40.33 24.3849 40.2604 24.5971 40.2604 24.8622C40.2604 25.2301 40.3963 25.5085 40.6681 25.6974C40.9398 25.883 41.2862 25.9759 41.7071 25.9759ZM47.4124 27V19.3636H48.8392V20.6065H48.9337C49.0928 20.1856 49.353 19.8575 49.7142 19.6222C50.0755 19.3835 50.508 19.2642 51.0118 19.2642C51.5222 19.2642 51.9498 19.3835 52.2945 19.6222C52.6425 19.8608 52.8994 20.1889 53.0651 20.6065H53.1446C53.3269 20.1989 53.6169 19.8741 54.0147 19.6321C54.4124 19.3868 54.8863 19.2642 55.4365 19.2642C56.1292 19.2642 56.6943 19.4813 57.1318 19.9155C57.5727 20.3497 57.7931 21.0043 57.7931 21.8793V27H56.3066V22.0185C56.3066 21.5014 56.1657 21.1269 55.884 20.8949C55.6022 20.6629 55.2658 20.5469 54.8747 20.5469C54.3908 20.5469 54.0147 20.696 53.7462 20.9943C53.4777 21.2893 53.3435 21.6688 53.3435 22.1328V27H51.862V21.924C51.862 21.5097 51.7327 21.1766 51.4742 20.9247C51.2156 20.6728 50.8792 20.5469 50.4649 20.5469C50.1832 20.5469 49.923 20.6214 49.6844 20.7706C49.4491 20.9164 49.2585 21.1203 49.1127 21.3821C48.9701 21.6439 48.8989 21.9472 48.8989 22.2919V27H47.4124ZM63.3566 27.1541C62.6043 27.1541 61.9563 26.9934 61.4127 26.6719C60.8725 26.3471 60.4549 25.8913 60.1599 25.3047C59.8682 24.7147 59.7224 24.0237 59.7224 23.2315C59.7224 22.4493 59.8682 21.7599 60.1599 21.1634C60.4549 20.5668 60.8659 20.1011 61.3928 19.7663C61.9231 19.4316 62.5429 19.2642 63.2522 19.2642C63.6831 19.2642 64.1007 19.3355 64.5051 19.478C64.9094 19.6205 65.2723 19.8442 65.5938 20.1491C65.9153 20.4541 66.1689 20.8501 66.3545 21.3374C66.5401 21.8213 66.6329 22.4096 66.6329 23.1023V23.6293H60.5626V22.5156H65.1762C65.1762 22.1245 65.0967 21.7782 64.9376 21.4766C64.7785 21.1716 64.5548 20.9313 64.2664 20.7557C63.9814 20.58 63.6466 20.4922 63.2622 20.4922C62.8445 20.4922 62.48 20.5949 62.1684 20.8004C61.8602 21.0026 61.6215 21.2678 61.4525 21.5959C61.2868 21.9207 61.2039 22.2737 61.2039 22.6548V23.5249C61.2039 24.0353 61.2934 24.4695 61.4724 24.8274C61.6547 25.1854 61.9082 25.4588 62.233 25.6477C62.5578 25.8333 62.9373 25.9261 63.3715 25.9261C63.6533 25.9261 63.9101 25.8864 64.1421 25.8068C64.3741 25.724 64.5747 25.6013 64.7437 25.4389C64.9127 25.2765 65.042 25.076 65.1315 24.8374L66.5384 25.0909C66.4257 25.5052 66.2236 25.8681 65.9319 26.1797C65.6436 26.4879 65.2806 26.7282 64.8431 26.9006C64.4089 27.0696 63.9134 27.1541 63.3566 27.1541ZM72.1269 19.3636V20.5568H67.9557V19.3636H72.1269ZM69.0743 17.5341H70.5608V24.7578C70.5608 25.0462 70.6039 25.2633 70.6901 25.4091C70.7762 25.5516 70.8873 25.6494 71.0232 25.7024C71.1624 25.7521 71.3132 25.777 71.4756 25.777C71.5949 25.777 71.6993 25.7687 71.7888 25.7521C71.8783 25.7356 71.9479 25.7223 71.9976 25.7124L72.2661 26.9403C72.1799 26.9735 72.0572 27.0066 71.8982 27.0398C71.7391 27.0762 71.5402 27.0961 71.3016 27.0994C70.9105 27.1061 70.5459 27.0365 70.2078 26.8906C69.8697 26.7448 69.5963 26.5194 69.3875 26.2145C69.1787 25.9096 69.0743 25.5268 69.0743 25.0661V17.5341ZM77.2604 27.1541C76.508 27.1541 75.86 26.9934 75.3165 26.6719C74.7762 26.3471 74.3586 25.8913 74.0636 25.3047C73.772 24.7147 73.6261 24.0237 73.6261 23.2315C73.6261 22.4493 73.772 21.7599 74.0636 21.1634C74.3586 20.5668 74.7696 20.1011 75.2966 19.7663C75.8269 19.4316 76.4467 19.2642 77.156 19.2642C77.5868 19.2642 78.0044 19.3355 78.4088 19.478C78.8132 19.6205 79.1761 19.8442 79.4976 20.1491C79.8191 20.4541 80.0726 20.8501 80.2582 21.3374C80.4438 21.8213 80.5366 22.4096 80.5366 23.1023V23.6293H74.4663V22.5156H79.08C79.08 22.1245 79.0004 21.7782 78.8413 21.4766C78.6822 21.1716 78.4585 20.9313 78.1702 20.7557C77.8851 20.58 77.5504 20.4922 77.1659 20.4922C76.7483 20.4922 76.3837 20.5949 76.0722 20.8004C75.7639 21.0026 75.5253 21.2678 75.3562 21.5959C75.1905 21.9207 75.1077 22.2737 75.1077 22.6548V23.5249C75.1077 24.0353 75.1972 24.4695 75.3761 24.8274C75.5584 25.1854 75.812 25.4588 76.1368 25.6477C76.4616 25.8333 76.8411 25.9261 77.2753 25.9261C77.557 25.9261 77.8139 25.8864 78.0459 25.8068C78.2779 25.724 78.4784 25.6013 78.6474 25.4389C78.8165 25.2765 78.9457 25.076 79.0352 24.8374L80.4422 25.0909C80.3295 25.5052 80.1273 25.8681 79.8357 26.1797C79.5473 26.4879 79.1844 26.7282 78.7469 26.9006C78.3127 27.0696 77.8172 27.1541 77.2604 27.1541ZM82.466 27V19.3636H83.9028V20.5767H83.9823C84.1215 20.1657 84.3668 19.8426 84.7181 19.6072C85.0727 19.3686 85.4738 19.2493 85.9212 19.2493C86.014 19.2493 86.1234 19.2526 86.2493 19.2592C86.3786 19.2659 86.4797 19.2741 86.5526 19.2841V20.706C86.493 20.6894 86.3869 20.6712 86.2344 20.6513C86.082 20.6281 85.9295 20.6165 85.777 20.6165C85.4257 20.6165 85.1125 20.6911 84.8374 20.8402C84.5656 20.986 84.3502 21.1899 84.1911 21.4517C84.032 21.7102 83.9525 22.0052 83.9525 22.3366V27H82.466Z" fill="#595959"/>
</svg>
