<svg width="18" height="18" viewBox="0 0 18 18" fill="none" xmlns="http://www.w3.org/2000/svg">
<path fill-rule="evenodd" clip-rule="evenodd" d="M9.00002 0.0410156C4.05585 0.0410156 0.041687 4.05518 0.041687 8.99935C0.041687 13.9435 4.05585 17.9577 9.00002 17.9577C13.9442 17.9577 17.9584 13.9435 17.9584 8.99935C17.9584 4.05518 13.9442 0.0410156 9.00002 0.0410156ZM9.00002 1.29102C13.2542 1.29102 16.7084 4.74518 16.7084 8.99935C16.7084 13.2535 13.2542 16.7077 9.00002 16.7077C4.74585 16.7077 1.29169 13.2535 1.29169 8.99935C1.29169 4.74518 4.74585 1.29102 9.00002 1.29102Z" fill="#5D616C"/>
<path fill-rule="evenodd" clip-rule="evenodd" d="M10.0417 5.66602V12.3327C10.0417 12.6777 10.3217 12.9577 10.6667 12.9577C11.0117 12.9577 11.2917 12.6777 11.2917 12.3327V5.66602C11.2917 5.32102 11.0117 5.04102 10.6667 5.04102C10.3217 5.04102 10.0417 5.32102 10.0417 5.66602Z" fill="#5D616C"/>
<path fill-rule="evenodd" clip-rule="evenodd" d="M6.70837 5.66602V12.3327C6.70837 12.6777 6.98837 12.9577 7.33337 12.9577C7.67837 12.9577 7.95837 12.6777 7.95837 12.3327V5.66602C7.95837 5.32102 7.67837 5.04102 7.33337 5.04102C6.98837 5.04102 6.70837 5.32102 6.70837 5.66602Z" fill="#5D616C"/>
</svg>
