<svg width="18" height="10" viewBox="0 0 18 10" fill="none" xmlns="http://www.w3.org/2000/svg">
<path fill-rule="evenodd" clip-rule="evenodd" d="M3.91 3.33333H1.70833C0.788331 3.33333 0.0416641 4.08 0.0416641 5C0.0416641 5.92 0.788331 6.66667 1.70833 6.66667H4.83333C5.40833 6.66667 5.9425 6.37083 6.24666 5.88333L6.91666 4.81083L9.67 9.21667C9.97416 9.70417 10.5083 10 11.0833 10C11.6583 10 12.1925 9.70417 12.4967 9.21667L14.09 6.66667H16.2917C17.2117 6.66667 17.9583 5.92 17.9583 5C17.9583 4.08 17.2117 3.33333 16.2917 3.33333H13.1667C12.5917 3.33333 12.0575 3.62917 11.7533 4.11667L11.0833 5.18917L8.33 0.783333C8.02583 0.295833 7.49166 0 6.91666 0C6.34166 0 5.8075 0.295833 5.50333 0.783333L3.91 3.33333ZM4.23083 4.5825L4.25583 4.58333L4.2575 4.58167C4.36916 4.57583 4.43 4.55833 4.43 4.55833C4.5775 4.51583 4.70416 4.42 4.78583 4.28917L6.56333 1.44583C6.63916 1.32417 6.77333 1.25 6.91666 1.25C7.06 1.25 7.19416 1.32417 7.27 1.44583L10.5367 6.67167C10.6442 6.865 10.8458 6.98667 11.0675 6.9925C11.2883 6.99833 11.4958 6.88667 11.6133 6.69917L12.8133 4.77917C12.8892 4.6575 13.0233 4.58333 13.1667 4.58333H16.2917C16.5217 4.58333 16.7083 4.77 16.7083 5C16.7083 5.23 16.5217 5.41667 16.2917 5.41667C16.2917 5.41667 14.2283 5.41667 13.815 5.41667C13.6567 5.41667 13.57 5.44167 13.57 5.44167C13.4225 5.48417 13.2958 5.58 13.2142 5.71083L11.4367 8.55417C11.3608 8.67583 11.2267 8.75 11.0833 8.75C10.94 8.75 10.8058 8.67583 10.73 8.55417L7.46333 3.32917C7.35583 3.135 7.15416 3.01333 6.9325 3.0075C6.71166 3.00167 6.50416 3.11333 6.38666 3.30083L5.18666 5.22083C5.11083 5.3425 4.97666 5.41667 4.83333 5.41667H1.70833C1.47833 5.41667 1.29166 5.23 1.29166 5C1.29166 4.77 1.47833 4.58333 1.70833 4.58333H4.185L4.23083 4.5825Z" fill="#5D616C"/>
</svg>
