<svg width="102" height="44" viewBox="0 0 102 44" fill="none" xmlns="http://www.w3.org/2000/svg">
<rect x="0.5" y="0.5" width="101" height="43" rx="7.5" fill="white" stroke="#F0CCD0"/>
<path d="M32.4104 16.8182L34.8464 20.8004H34.926L37.3621 16.8182H39.1419L35.97 21.9091L39.1618 27H37.372L34.926 23.0724H34.8464L32.4004 27H30.6106L33.8571 21.9091L30.6305 16.8182H32.4104ZM44.437 21.2628V22.5554H39.9228V21.2628H44.437ZM55.2742 20.1293H53.723C53.6634 19.7978 53.5523 19.5062 53.3899 19.2543C53.2275 19.0024 53.0286 18.7886 52.7933 18.6129C52.558 18.4373 52.2945 18.3047 52.0028 18.2152C51.7145 18.1257 51.4079 18.081 51.0831 18.081C50.4965 18.081 49.9711 18.2285 49.5071 18.5234C49.0464 18.8184 48.6818 19.2509 48.4134 19.821C48.1482 20.3911 48.0156 21.0871 48.0156 21.9091C48.0156 22.7377 48.1482 23.437 48.4134 24.0071C48.6818 24.5772 49.0481 25.008 49.5121 25.2997C49.9761 25.5914 50.4981 25.7372 51.0781 25.7372C51.3996 25.7372 51.7045 25.6941 51.9929 25.608C52.2846 25.5185 52.5481 25.3875 52.7834 25.2152C53.0187 25.0429 53.2176 24.8324 53.38 24.5838C53.5457 24.3319 53.66 24.0436 53.723 23.7188L55.2742 23.7237C55.1913 24.2242 55.0305 24.6849 54.7919 25.1058C54.5566 25.5234 54.2533 25.8847 53.8821 26.1896C53.5142 26.4912 53.0933 26.7249 52.6193 26.8906C52.1454 27.0563 51.6283 27.1392 51.0682 27.1392C50.1866 27.1392 49.401 26.9304 48.7117 26.5128C48.0223 26.0919 47.4787 25.4903 47.081 24.7081C46.6866 23.9259 46.4893 22.9929 46.4893 21.9091C46.4893 20.822 46.6882 19.889 47.0859 19.1101C47.4837 18.3279 48.0272 17.728 48.7166 17.3104C49.406 16.8894 50.1899 16.679 51.0682 16.679C51.6084 16.679 52.1122 16.7569 52.5795 16.9126C53.0502 17.0651 53.4728 17.2905 53.8473 17.5888C54.2218 17.8838 54.5317 18.245 54.777 18.6726C55.0223 19.0968 55.188 19.5824 55.2742 20.1293ZM59.4954 27.169C59.0115 27.169 58.574 27.0795 58.1829 26.9006C57.7918 26.7183 57.4819 26.4548 57.2532 26.1101C57.0278 25.7654 56.9151 25.3428 56.9151 24.8423C56.9151 24.4115 56.998 24.0568 57.1637 23.7784C57.3294 23.5 57.5531 23.2796 57.8349 23.1172C58.1166 22.9548 58.4315 22.8321 58.7795 22.7493C59.1275 22.6664 59.4821 22.6035 59.8434 22.5604C60.3008 22.5073 60.672 22.4643 60.957 22.4311C61.2421 22.3946 61.4492 22.3366 61.5785 22.2571C61.7077 22.1776 61.7724 22.0483 61.7724 21.8693V21.8345C61.7724 21.4003 61.6497 21.0639 61.4045 20.8253C61.1625 20.5866 60.8013 20.4673 60.3207 20.4673C59.8202 20.4673 59.4258 20.5784 59.1374 20.8004C58.8524 21.0192 58.6552 21.2628 58.5458 21.5312L57.1488 21.2131C57.3145 20.7491 57.5565 20.3745 57.8746 20.0895C58.1961 19.8011 58.5657 19.5923 58.9833 19.4631C59.4009 19.3305 59.8401 19.2642 60.3008 19.2642C60.6057 19.2642 60.9289 19.3007 61.2702 19.3736C61.6149 19.4432 61.9364 19.5724 62.2347 19.7614C62.5363 19.9503 62.7833 20.2204 62.9755 20.5717C63.1677 20.9197 63.2638 21.3722 63.2638 21.929V27H61.8121V25.956H61.7525C61.6564 26.1482 61.5122 26.3371 61.32 26.5227C61.1277 26.7083 60.8808 26.8625 60.5792 26.9851C60.2776 27.1077 59.9163 27.169 59.4954 27.169ZM59.8185 25.9759C60.2295 25.9759 60.5808 25.8946 60.8725 25.7322C61.1675 25.5698 61.3912 25.3577 61.5437 25.0959C61.6995 24.8307 61.7773 24.5473 61.7773 24.2457V23.2614C61.7243 23.3144 61.6216 23.3641 61.4691 23.4105C61.32 23.4536 61.1493 23.4917 60.957 23.5249C60.7648 23.5547 60.5775 23.5829 60.3952 23.6094C60.2129 23.6326 60.0605 23.6525 59.9379 23.669C59.6495 23.7055 59.386 23.7668 59.1474 23.853C58.912 23.9392 58.7231 24.0634 58.5806 24.2259C58.4414 24.3849 58.3718 24.5971 58.3718 24.8622C58.3718 25.2301 58.5077 25.5085 58.7795 25.6974C59.0513 25.883 59.3976 25.9759 59.8185 25.9759ZM67.0103 16.8182V27H65.5238V16.8182H67.0103ZM70.7766 16.8182V27H69.2901V16.8182H70.7766Z" fill="#595959"/>
</svg>
