<svg width="18" height="18" viewBox="0 0 18 18" fill="none" xmlns="http://www.w3.org/2000/svg">
<path fill-rule="evenodd" clip-rule="evenodd" d="M14.625 7.33203C14.625 5.84035 14.0325 4.40953 12.9775 3.35453C11.9225 2.29953 10.4917 1.70703 9 1.70703V2.95703C8.655 2.95703 8.375 2.67703 8.375 2.33203C8.375 1.98703 8.655 1.70703 9 1.70703C7.50832 1.70703 6.0775 2.29953 5.0225 3.35453C3.9675 4.40953 3.375 5.84039 3.375 7.33203C3.375 10.8129 3.375 14.832 3.375 14.832C3.375 15.177 3.655 15.457 4 15.457H14C14.345 15.457 14.625 15.177 14.625 14.832V7.33203ZM13.375 7.33203V14.207H4.625V7.33203C4.625 6.17203 5.08582 5.05871 5.90668 4.23871C6.72668 3.41789 7.84 2.95703 9 2.95703C10.16 2.95703 11.2733 3.41785 12.0933 4.23871C12.9142 5.05871 13.375 6.17203 13.375 7.33203Z" fill="#5D616C"/>
<path fill-rule="evenodd" clip-rule="evenodd" d="M17.4209 6.38855C17.145 4.84937 16.405 3.41855 15.2842 2.29772C15.04 2.0544 14.6442 2.0544 14.4 2.29772C14.1558 2.5419 14.1558 2.93772 14.4 3.1819C15.3392 4.12108 15.9592 5.3194 16.19 6.60858C16.2508 6.94858 16.5767 7.1744 16.9158 7.11358C17.255 7.05276 17.4817 6.72773 17.4209 6.38855Z" fill="#5D616C"/>
<path fill-rule="evenodd" clip-rule="evenodd" d="M2.71582 2.29776C1.595 3.41858 0.855003 4.84944 0.579144 6.38858C0.518324 6.72776 0.744964 7.05276 1.08414 7.11358C1.42332 7.1744 1.74914 6.94858 1.80996 6.60858C2.04078 5.3194 2.66078 4.12108 3.59996 3.1819C3.84414 2.93772 3.84414 2.5419 3.59996 2.29772C3.35582 2.0544 2.96 2.0544 2.71582 2.29776Z" fill="#5D616C"/>
<path fill-rule="evenodd" clip-rule="evenodd" d="M3.16669 15.457H14.8334C15.1784 15.457 15.4584 15.177 15.4584 14.832C15.4584 14.487 15.1784 14.207 14.8334 14.207H3.16669C2.82169 14.207 2.54169 14.487 2.54169 14.832C2.54169 15.177 2.82169 15.457 3.16669 15.457Z" fill="#5D616C"/>
<path fill-rule="evenodd" clip-rule="evenodd" d="M9.625 2.33266V0.666016C9.625 0.321016 9.345 0.0410156 9 0.0410156C8.655 0.0410156 8.375 0.321016 8.375 0.666016V2.3327C8.375 2.6777 8.655 2.9577 9 2.9577C9.345 2.95766 9.625 2.67766 9.625 2.33266Z" fill="#5D616C"/>
<path fill-rule="evenodd" clip-rule="evenodd" d="M10.875 14.832C10.875 15.867 10.035 16.707 9 16.707C7.965 16.707 7.125 15.867 7.125 14.832C7.125 14.487 6.845 14.207 6.5 14.207C6.155 14.207 5.875 14.487 5.875 14.832C5.875 16.557 7.275 17.957 9 17.957C10.725 17.957 12.125 16.557 12.125 14.832C12.125 14.487 11.845 14.207 11.5 14.207C11.155 14.207 10.875 14.487 10.875 14.832Z" fill="#5D616C"/>
</svg>
