<svg width="18" height="16" viewBox="0 0 18 16" fill="none" xmlns="http://www.w3.org/2000/svg">
<path fill-rule="evenodd" clip-rule="evenodd" d="M9.94585 2.79102C9.60502 2.79102 9.28585 2.62435 9.09085 2.34518L8.34335 1.27268C7.91502 0.657682 7.21252 0.291016 6.46335 0.291016C5.41919 0.291016 3.64419 0.291016 2.33335 0.291016C1.06752 0.291016 0.041687 1.31685 0.041687 2.58268V13.416C0.041687 14.0235 0.283354 14.6068 0.71252 15.0368C1.14252 15.466 1.72585 15.7077 2.33335 15.7077H15.6667C16.2742 15.7077 16.8575 15.466 17.2875 15.0368C17.7167 14.6068 17.9584 14.0235 17.9584 13.416V5.08268C17.9584 4.47518 17.7167 3.89185 17.2875 3.46185C16.8575 3.03268 16.2742 2.79102 15.6667 2.79102H9.94585ZM9.94585 4.04102H15.6667C15.9434 4.04102 16.2075 4.15102 16.4034 4.34602C16.5984 4.54185 16.7084 4.80602 16.7084 5.08268V13.416C16.7084 13.6927 16.5984 13.9569 16.4034 14.1527C16.2075 14.3477 15.9434 14.4577 15.6667 14.4577H2.33335C2.05669 14.4577 1.79252 14.3477 1.59669 14.1527C1.40169 13.9569 1.29169 13.6927 1.29169 13.416V2.58268C1.29169 2.00768 1.75835 1.54102 2.33335 1.54102H6.46335C6.80419 1.54102 7.12335 1.70768 7.31835 1.98685L8.06585 3.05935C8.49419 3.67435 9.19585 4.04102 9.94585 4.04102Z" fill="#5D616C"/>
<path fill-rule="evenodd" clip-rule="evenodd" d="M11.7084 6.95703H7.54169C7.19669 6.95703 6.91669 7.23703 6.91669 7.58203C6.91669 7.92703 7.19669 8.20703 7.54169 8.20703H11.7084C12.0534 8.20703 12.3334 7.92703 12.3334 7.58203C12.3334 7.23703 12.0534 6.95703 11.7084 6.95703Z" fill="#5D616C"/>
<path fill-rule="evenodd" clip-rule="evenodd" d="M6.29169 11.541H10.4584C10.8034 11.541 11.0834 11.261 11.0834 10.916C11.0834 10.571 10.8034 10.291 10.4584 10.291H6.29169C5.94669 10.291 5.66669 10.571 5.66669 10.916C5.66669 11.261 5.94669 11.541 6.29169 11.541Z" fill="#5D616C"/>
<path fill-rule="evenodd" clip-rule="evenodd" d="M10.0167 6.77349L10.8242 7.58182L10.0167 8.39016C9.77252 8.63349 9.77252 9.03016 10.0167 9.27349C10.26 9.51766 10.6567 9.51766 10.9 9.27349L12.15 8.02349C12.3942 7.77932 12.3942 7.38432 12.15 7.14016L10.9 5.89016C10.6567 5.64599 10.26 5.64599 10.0167 5.89016C9.77252 6.13349 9.77252 6.53016 10.0167 6.77349Z" fill="#5D616C"/>
<path fill-rule="evenodd" clip-rule="evenodd" d="M7.1 9.22414L5.85 10.4741C5.60583 10.7183 5.60583 11.1133 5.85 11.3575L7.1 12.6075C7.34333 12.8516 7.73999 12.8516 7.98333 12.6075C8.22749 12.3641 8.22749 11.9675 7.98333 11.7241L7.17583 10.9158L7.98333 10.1075C8.22749 9.86414 8.22749 9.46747 7.98333 9.22414C7.73999 8.97997 7.34333 8.97997 7.1 9.22414Z" fill="#5D616C"/>
</svg>
