<svg width="18" height="16" viewBox="0 0 18 16" fill="none" xmlns="http://www.w3.org/2000/svg">
<path fill-rule="evenodd" clip-rule="evenodd" d="M9.94583 2.79102C9.605 2.79102 9.28583 2.62435 9.09083 2.34518L8.34333 1.27268C7.915 0.657682 7.2125 0.291016 6.46333 0.291016C5.41916 0.291016 3.64416 0.291016 2.33333 0.291016C1.0675 0.291016 0.0416641 1.31685 0.0416641 2.58268V13.416C0.0416641 14.0235 0.283331 14.6068 0.712498 15.0368C1.1425 15.466 1.72583 15.7077 2.33333 15.7077H15.6667C16.2742 15.7077 16.8575 15.466 17.2875 15.0368C17.7167 14.6068 17.9583 14.0235 17.9583 13.416V5.08268C17.9583 4.47518 17.7167 3.89185 17.2875 3.46185C16.8575 3.03268 16.2742 2.79102 15.6667 2.79102H9.94583ZM9.94583 4.04102H15.6667C15.9433 4.04102 16.2075 4.15102 16.4033 4.34602C16.5983 4.54185 16.7083 4.80602 16.7083 5.08268V13.416C16.7083 13.6927 16.5983 13.9569 16.4033 14.1527C16.2075 14.3477 15.9433 14.4577 15.6667 14.4577H2.33333C2.05666 14.4577 1.7925 14.3477 1.59666 14.1527C1.40166 13.9569 1.29166 13.6927 1.29166 13.416V2.58268C1.29166 2.00768 1.75833 1.54102 2.33333 1.54102H6.46333C6.80416 1.54102 7.12333 1.70768 7.31833 1.98685L8.06583 3.05935C8.49416 3.67435 9.19583 4.04102 9.94583 4.04102Z" fill="#5D616C"/>
<path fill-rule="evenodd" clip-rule="evenodd" d="M9.625 10.5C9.625 10.845 9.345 11.125 9 11.125H7.75C7.405 11.125 7.125 11.405 7.125 11.75C7.125 12.095 7.405 12.375 7.75 12.375H9C10.0358 12.375 10.875 11.5358 10.875 10.5C10.875 9.46417 10.0358 8.625 9 8.625C8.655 8.625 8.375 8.345 8.375 8C8.375 7.655 8.655 7.375 9 7.375H10.25C10.595 7.375 10.875 7.095 10.875 6.75C10.875 6.405 10.595 6.125 10.25 6.125H9C7.96417 6.125 7.125 6.96417 7.125 8C7.125 9.03583 7.96417 9.875 9 9.875C9.345 9.875 9.625 10.155 9.625 10.5Z" fill="#5D616C"/>
<path fill-rule="evenodd" clip-rule="evenodd" d="M9.625 6.74935V5.91602C9.625 5.57102 9.345 5.29102 9 5.29102C8.655 5.29102 8.375 5.57102 8.375 5.91602V6.74935C8.375 7.09435 8.655 7.37435 9 7.37435C9.345 7.37435 9.625 7.09435 9.625 6.74935Z" fill="#5D616C"/>
<path fill-rule="evenodd" clip-rule="evenodd" d="M9.625 12.5833V11.75C9.625 11.405 9.345 11.125 9 11.125C8.655 11.125 8.375 11.405 8.375 11.75V12.5833C8.375 12.9283 8.655 13.2083 9 13.2083C9.345 13.2083 9.625 12.9283 9.625 12.5833Z" fill="#5D616C"/>
</svg>
