<svg width="16" height="18" viewBox="0 0 16 18" fill="none" xmlns="http://www.w3.org/2000/svg">
<path fill-rule="evenodd" clip-rule="evenodd" d="M8.00001 6.70703C9.49501 6.70703 10.7083 7.92036 10.7083 9.41536C10.7083 10.9104 9.49501 12.1237 8.00001 12.1237C6.50501 12.1237 5.29167 10.9104 5.29167 9.41536C5.29167 7.92036 6.50501 6.70703 8.00001 6.70703ZM8.00001 7.95703C7.19501 7.95703 6.54167 8.61036 6.54167 9.41536C6.54167 10.2204 7.19501 10.8737 8.00001 10.8737C8.80501 10.8737 9.45834 10.2204 9.45834 9.41536C9.45834 8.61036 8.80501 7.95703 8.00001 7.95703Z" fill="#5D616C"/>
<path fill-rule="evenodd" clip-rule="evenodd" d="M4.87084 15.067C4.74084 15.3862 4.37584 15.5412 4.05667 15.4112C3.73667 15.282 3.58251 14.917 3.71167 14.597C4.39834 12.9029 6.06084 11.707 8.00001 11.707C9.93917 11.707 11.6017 12.9029 12.2883 14.597C12.4175 14.917 12.2633 15.282 11.9433 15.4112C11.6242 15.5412 11.2592 15.3862 11.1292 15.067C10.6283 13.8304 9.41501 12.957 8.00001 12.957C6.58501 12.957 5.37167 13.8304 4.87084 15.067Z" fill="#5D616C"/>
<path fill-rule="evenodd" clip-rule="evenodd" d="M6.33334 1.70703C6.67834 1.70703 6.95834 1.98703 6.95834 2.33203C6.95834 2.67703 6.67834 2.95703 6.33334 2.95703H3.83334C2.7975 2.95703 1.95834 3.7962 1.95834 4.83203V14.832C1.95834 15.8679 2.7975 16.707 3.83334 16.707H12.1667C13.2025 16.707 14.0417 15.8679 14.0417 14.832V4.83203C14.0417 3.7962 13.2025 2.95703 12.1667 2.95703H9.66667C9.32167 2.95703 9.04167 2.67703 9.04167 2.33203C9.04167 1.98703 9.32167 1.70703 9.66667 1.70703H12.1667C13.8925 1.70703 15.2917 3.1062 15.2917 4.83203V14.832C15.2917 16.5579 13.8925 17.957 12.1667 17.957H3.83334C2.1075 17.957 0.708336 16.5579 0.708336 14.832V4.83203C0.708336 3.1062 2.1075 1.70703 3.83334 1.70703H6.33334Z" fill="#5D616C"/>
<path fill-rule="evenodd" clip-rule="evenodd" d="M10.2917 0.666016V3.99935C10.2917 4.80435 9.63917 5.45768 8.83334 5.45768H7.16667C6.36084 5.45768 5.70834 4.80435 5.70834 3.99935V0.666016C5.70834 0.321016 5.98834 0.0410156 6.33334 0.0410156H9.66667C10.0117 0.0410156 10.2917 0.321016 10.2917 0.666016ZM9.04167 1.29102H6.95834V3.99935C6.95834 4.11435 7.05167 4.20768 7.16667 4.20768H8.83334C8.94834 4.20768 9.04167 4.11435 9.04167 3.99935V1.29102Z" fill="#5D616C"/>
</svg>
