<svg width="18" height="18" viewBox="0 0 18 18" fill="none" xmlns="http://www.w3.org/2000/svg">
<path fill-rule="evenodd" clip-rule="evenodd" d="M8.99999 6.7207C7.735 6.7207 6.70833 7.74737 6.70833 9.01237C6.70833 10.2765 7.735 11.304 8.99999 11.304C10.265 11.304 11.2917 10.2765 11.2917 9.01237C11.2917 7.74737 10.265 6.7207 8.99999 6.7207ZM8.99999 7.9707C9.575 7.9707 10.0417 8.43737 10.0417 9.01237C10.0417 9.58737 9.575 10.054 8.99999 10.054C8.42499 10.054 7.95833 9.58737 7.95833 9.01237C7.95833 8.43737 8.42499 7.9707 8.99999 7.9707Z" fill="#5D616C"/>
<path fill-rule="evenodd" clip-rule="evenodd" d="M7.37666 8.0482C7.4675 8.21154 7.6275 8.32487 7.81083 8.35737C7.995 8.3907 8.18416 8.33904 8.32583 8.2182C8.5075 8.06404 8.74333 7.9707 9 7.9707C9.25666 7.9707 9.4925 8.06404 9.67416 8.2182C9.81583 8.33904 10.005 8.3907 10.1892 8.35737C10.3725 8.32487 10.5325 8.21154 10.6233 8.04904C10.6233 8.04904 12.3 5.0682 12.8858 4.02404C13.0208 3.78487 13.055 3.49987 12.98 3.23404C12.9058 2.9682 12.7283 2.7432 12.4875 2.6082C12.485 2.60737 12.4833 2.6057 12.4808 2.60487C11.4458 2.0407 10.26 1.7207 9 1.7207C7.74083 1.7207 6.555 2.0407 5.52 2.60154C5.51666 2.6032 5.51416 2.60487 5.51166 2.6057C5.27 2.74154 5.0925 2.96737 5.01833 3.23404C4.94333 3.5007 4.97833 3.7857 5.11416 4.02654C5.7 5.06904 7.37666 8.0482 7.37666 8.0482ZM11.6892 3.60154C11.2192 4.43987 10.3208 6.0382 9.84583 6.88154C9.58416 6.77737 9.29833 6.7207 9 6.7207C8.70166 6.7207 8.41583 6.77737 8.15416 6.88154L6.30833 3.59987C7.12 3.19737 8.03333 2.9707 9 2.9707C9.96583 2.9707 10.8792 3.19737 11.6892 3.60154Z" fill="#5D616C"/>
<path fill-rule="evenodd" clip-rule="evenodd" d="M8.9775 10.9004C9.0725 10.7396 9.09083 10.5454 9.0275 10.3696C8.96417 10.1937 8.825 10.0562 8.64917 9.99292C8.425 9.91292 8.22667 9.75625 8.0975 9.53375C7.96917 9.31125 7.9325 9.06042 7.97583 8.82625C8.00917 8.64208 7.95917 8.45292 7.83833 8.31042C7.71833 8.16792 7.54083 8.08625 7.35417 8.08792C7.35417 8.08792 3.93417 8.12625 2.7375 8.14125C2.4625 8.14458 2.19917 8.25708 2.00583 8.45458C1.81333 8.65208 1.70667 8.91875 1.71 9.19458C1.71 9.19708 1.71083 9.19958 1.71083 9.20208C1.74 10.3796 2.055 11.5671 2.685 12.6587C3.315 13.7496 4.185 14.6154 5.18833 15.2321C5.19083 15.2337 5.19333 15.2354 5.19583 15.2371C5.43417 15.3779 5.71833 15.4187 5.98667 15.3504C6.255 15.2812 6.485 15.1087 6.62583 14.8704C7.235 13.8421 8.9775 10.9004 8.9775 10.9004ZM7.57833 10.8104L5.65917 14.0496C4.90417 13.5479 4.25083 12.8704 3.7675 12.0337C3.285 11.1971 3.025 10.2921 2.97 9.38875C3.93083 9.37708 5.76417 9.35625 6.7325 9.34542C6.7725 9.62375 6.86583 9.89958 7.015 10.1587C7.165 10.4171 7.35667 10.6354 7.57833 10.8104Z" fill="#5D616C"/>
<path fill-rule="evenodd" clip-rule="evenodd" d="M10.6467 8.08792C10.4592 8.08625 10.2817 8.16792 10.1617 8.31042C10.0408 8.45292 9.99083 8.64208 10.0242 8.82625C10.0675 9.06042 10.0308 9.31125 9.9025 9.53375C9.77333 9.75625 9.575 9.91292 9.35083 9.99292C9.175 10.0562 9.03583 10.1937 8.9725 10.3696C8.90916 10.5454 8.9275 10.7396 9.0225 10.9004C9.0225 10.9004 10.765 13.8429 11.3767 14.8712C11.5167 15.1079 11.7467 15.2804 12.0133 15.3487C12.2808 15.4171 12.565 15.3762 12.8025 15.2346C12.8042 15.2337 12.8067 15.2321 12.8092 15.2312C13.8142 14.6171 14.685 13.7496 15.315 12.6587C15.9442 11.5679 16.26 10.3812 16.2917 9.20375C16.2917 9.20125 16.2917 9.19792 16.2917 9.19458C16.2958 8.91792 16.1883 8.65125 15.995 8.45292C15.8017 8.25542 15.5375 8.14292 15.26 8.14042C14.065 8.12625 10.6467 8.08792 10.6467 8.08792ZM11.2675 9.34542L15.0325 9.38792C14.975 10.2921 14.715 11.1971 14.2325 12.0337C13.7492 12.8704 13.0958 13.5479 12.3408 14.0471C11.85 13.2204 10.9158 11.6437 10.4217 10.8104C10.6433 10.6354 10.835 10.4171 10.985 10.1587C11.1342 9.89958 11.2275 9.62375 11.2675 9.34542Z" fill="#5D616C"/>
<path fill-rule="evenodd" clip-rule="evenodd" d="M9 0.0546875C4.05583 0.0546875 0.0416641 4.06885 0.0416641 9.01302C0.0416641 13.9572 4.05583 17.9714 9 17.9714C13.9442 17.9714 17.9583 13.9572 17.9583 9.01302C17.9583 4.06885 13.9442 0.0546875 9 0.0546875ZM9 1.30469C13.2542 1.30469 16.7083 4.75885 16.7083 9.01302C16.7083 13.2672 13.2542 16.7214 9 16.7214C4.74583 16.7214 1.29166 13.2672 1.29166 9.01302C1.29166 4.75885 4.74583 1.30469 9 1.30469Z" fill="#5D616C"/>
</svg>
