<svg width="18" height="20" viewBox="0 0 18 20" fill="none" xmlns="http://www.w3.org/2000/svg">
<path d="M5.66671 12.0827C6.12694 12.0827 6.50004 11.7096 6.50004 11.2493C6.50004 10.7891 6.12694 10.416 5.66671 10.416C5.20647 10.416 4.83337 10.7891 4.83337 11.2493C4.83337 11.7096 5.20647 12.0827 5.66671 12.0827Z" fill="#5D616C"/>
<path d="M5.66671 15.4167C6.12694 15.4167 6.50004 15.0436 6.50004 14.5833C6.50004 14.1231 6.12694 13.75 5.66671 13.75C5.20647 13.75 4.83337 14.1231 4.83337 14.5833C4.83337 15.0436 5.20647 15.4167 5.66671 15.4167Z" fill="#5D616C"/>
<path d="M9.00002 12.0827C9.46026 12.0827 9.83335 11.7096 9.83335 11.2493C9.83335 10.7891 9.46026 10.416 9.00002 10.416C8.53978 10.416 8.16669 10.7891 8.16669 11.2493C8.16669 11.7096 8.53978 12.0827 9.00002 12.0827Z" fill="#5D616C"/>
<path d="M9.00002 15.4167C9.46026 15.4167 9.83335 15.0436 9.83335 14.5833C9.83335 14.1231 9.46026 13.75 9.00002 13.75C8.53978 13.75 8.16669 14.1231 8.16669 14.5833C8.16669 15.0436 8.53978 15.4167 9.00002 15.4167Z" fill="#5D616C"/>
<path d="M12.3333 12.0827C12.7936 12.0827 13.1667 11.7096 13.1667 11.2493C13.1667 10.7891 12.7936 10.416 12.3333 10.416C11.8731 10.416 11.5 10.7891 11.5 11.2493C11.5 11.7096 11.8731 12.0827 12.3333 12.0827Z" fill="#5D616C"/>
<path d="M12.3333 15.4167C12.7936 15.4167 13.1667 15.0436 13.1667 14.5833C13.1667 14.1231 12.7936 13.75 12.3333 13.75C11.8731 13.75 11.5 14.1231 11.5 14.5833C11.5 15.0436 11.8731 15.4167 12.3333 15.4167Z" fill="#5D616C"/>
<path fill-rule="evenodd" clip-rule="evenodd" d="M17.9584 5.41602V16.2494C17.9584 17.0785 17.6292 17.8727 17.0434 18.4594C16.4567 19.0452 15.6625 19.3744 14.8334 19.3744H3.16669C2.33752 19.3744 1.54335 19.0452 0.956687 18.4594C0.370854 17.8727 0.041687 17.0785 0.041687 16.2494V5.41602C0.041687 4.58685 0.370854 3.79268 0.956687 3.20602C1.54335 2.62018 2.33752 2.29102 3.16669 2.29102H14.8334C15.6625 2.29102 16.4567 2.62018 17.0434 3.20602C17.6292 3.79268 17.9584 4.58685 17.9584 5.41602ZM16.7084 5.41602C16.7084 4.91852 16.5109 4.44185 16.1592 4.09018C15.8075 3.73852 15.3309 3.54102 14.8334 3.54102H3.16669C2.66919 3.54102 2.19252 3.73852 1.84085 4.09018C1.48919 4.44185 1.29169 4.91852 1.29169 5.41602V16.2494C1.29169 16.7469 1.48919 17.2235 1.84085 17.5752C2.19252 17.9269 2.66919 18.1244 3.16669 18.1244H14.8334C15.3309 18.1244 15.8075 17.9269 16.1592 17.5752C16.5109 17.2235 16.7084 16.7469 16.7084 16.2494V5.41602Z" fill="#5D616C"/>
<path fill-rule="evenodd" clip-rule="evenodd" d="M17.3334 6.875C17.6784 6.875 17.9584 7.155 17.9584 7.5C17.9584 7.845 17.6784 8.125 17.3334 8.125H0.666687C0.321687 8.125 0.041687 7.845 0.041687 7.5C0.041687 7.155 0.321687 6.875 0.666687 6.875H17.3334Z" fill="#5D616C"/>
<path fill-rule="evenodd" clip-rule="evenodd" d="M11.7084 1.25C11.7084 0.905 11.9884 0.625 12.3334 0.625C12.6784 0.625 12.9584 0.905 12.9584 1.25V4.58333C12.9584 4.92833 12.6784 5.20833 12.3334 5.20833C11.9884 5.20833 11.7084 4.92833 11.7084 4.58333V1.25Z" fill="#5D616C"/>
<path fill-rule="evenodd" clip-rule="evenodd" d="M5.04169 1.25C5.04169 0.905 5.32169 0.625 5.66669 0.625C6.01169 0.625 6.29169 0.905 6.29169 1.25V4.58333C6.29169 4.92833 6.01169 5.20833 5.66669 5.20833C5.32169 5.20833 5.04169 4.92833 5.04169 4.58333V1.25Z" fill="#5D616C"/>
</svg>
