<svg width="18" height="18" viewBox="0 0 18 18" fill="none" xmlns="http://www.w3.org/2000/svg">
<path fill-rule="evenodd" clip-rule="evenodd" d="M9.00002 0.0410156C4.05585 0.0410156 0.041687 4.05518 0.041687 8.99935C0.041687 13.9435 4.05585 17.9577 9.00002 17.9577C13.9442 17.9577 17.9584 13.9435 17.9584 8.99935C17.9584 4.05518 13.9442 0.0410156 9.00002 0.0410156ZM9.00002 1.29102C13.2542 1.29102 16.7084 4.74518 16.7084 8.99935C16.7084 13.2535 13.2542 16.7077 9.00002 16.7077C4.74585 16.7077 1.29169 13.2535 1.29169 8.99935C1.29169 4.74518 4.74585 1.29102 9.00002 1.29102Z" fill="#5D616C"/>
<path fill-rule="evenodd" clip-rule="evenodd" d="M9 7.125C7.965 7.125 7.125 7.965 7.125 9C7.125 10.035 7.965 10.875 9 10.875C10.035 10.875 10.875 10.035 10.875 9C10.875 7.965 10.035 7.125 9 7.125ZM9 8.375C9.345 8.375 9.625 8.655 9.625 9C9.625 9.345 9.345 9.625 9 9.625C8.655 9.625 8.375 9.345 8.375 9C8.375 8.655 8.655 8.375 9 8.375Z" fill="#5D616C"/>
<path fill-rule="evenodd" clip-rule="evenodd" d="M0.666687 9.625H2.33335C2.67835 9.625 2.95835 9.345 2.95835 9C2.95835 8.655 2.67835 8.375 2.33335 8.375H0.666687C0.321687 8.375 0.041687 8.655 0.041687 9C0.041687 9.345 0.321687 9.625 0.666687 9.625Z" fill="#5D616C"/>
<path fill-rule="evenodd" clip-rule="evenodd" d="M3.54919 15.3327L4.72752 14.1543C4.97169 13.9102 4.97169 13.5143 4.72752 13.271C4.48419 13.0268 4.08835 13.0268 3.84419 13.271L2.66585 14.4493C2.42169 14.6927 2.42169 15.0893 2.66585 15.3327C2.90919 15.5768 3.30585 15.5768 3.54919 15.3327Z" fill="#5D616C"/>
<path fill-rule="evenodd" clip-rule="evenodd" d="M9.625 17.3327V15.666C9.625 15.321 9.345 15.041 9 15.041C8.655 15.041 8.375 15.321 8.375 15.666V17.3327C8.375 17.6777 8.655 17.9577 9 17.9577C9.345 17.9577 9.625 17.6777 9.625 17.3327Z" fill="#5D616C"/>
<path fill-rule="evenodd" clip-rule="evenodd" d="M15.3342 14.4493L14.1559 13.271C13.9117 13.0268 13.5159 13.0268 13.2725 13.271C13.0284 13.5143 13.0284 13.9102 13.2725 14.1543L14.4509 15.3327C14.6942 15.5768 15.0909 15.5768 15.3342 15.3327C15.5784 15.0893 15.5784 14.6927 15.3342 14.4493Z" fill="#5D616C"/>
<path fill-rule="evenodd" clip-rule="evenodd" d="M17.3334 8.375H15.6667C15.3217 8.375 15.0417 8.655 15.0417 9C15.0417 9.345 15.3217 9.625 15.6667 9.625H17.3334C17.6784 9.625 17.9584 9.345 17.9584 9C17.9584 8.655 17.6784 8.375 17.3334 8.375Z" fill="#5D616C"/>
<path fill-rule="evenodd" clip-rule="evenodd" d="M14.4509 2.66555L13.2725 3.84388C13.0284 4.08805 13.0284 4.48388 13.2725 4.72721C13.5159 4.97138 13.9117 4.97138 14.1559 4.72721L15.3342 3.54888C15.5784 3.30555 15.5784 2.90888 15.3342 2.66555C15.0909 2.42138 14.6942 2.42138 14.4509 2.66555Z" fill="#5D616C"/>
<path fill-rule="evenodd" clip-rule="evenodd" d="M8.375 0.666016V2.33268C8.375 2.67768 8.655 2.95768 9 2.95768C9.345 2.95768 9.625 2.67768 9.625 2.33268V0.666016C9.625 0.321016 9.345 0.0410156 9 0.0410156C8.655 0.0410156 8.375 0.321016 8.375 0.666016Z" fill="#5D616C"/>
<path fill-rule="evenodd" clip-rule="evenodd" d="M2.66585 3.54888L3.84419 4.72721C4.08835 4.97138 4.48419 4.97138 4.72752 4.72721C4.97169 4.48388 4.97169 4.08805 4.72752 3.84388L3.54919 2.66555C3.30585 2.42138 2.90919 2.42138 2.66585 2.66555C2.42169 2.90888 2.42169 3.30555 2.66585 3.54888Z" fill="#5D616C"/>
<path fill-rule="evenodd" clip-rule="evenodd" d="M9.625 7.74935V4.41602C9.625 4.07102 9.345 3.79102 9 3.79102C8.655 3.79102 8.375 4.07102 8.375 4.41602V7.74935C8.375 8.09435 8.655 8.37435 9 8.37435C9.345 8.37435 9.625 8.09435 9.625 7.74935Z" fill="#5D616C"/>
<path fill-rule="evenodd" clip-rule="evenodd" d="M9.80837 10.6915L11.0584 11.9415C11.3017 12.1856 11.6984 12.1856 11.9417 11.9415C12.1859 11.6981 12.1859 11.3015 11.9417 11.0581L10.6917 9.80813C10.4484 9.56396 10.0517 9.56396 9.80837 9.80813C9.5642 10.0515 9.5642 10.4481 9.80837 10.6915Z" fill="#5D616C"/>
</svg>
