<svg width="20" height="20" viewBox="0 0 20 20" fill="none" xmlns="http://www.w3.org/2000/svg">
<g id="Component 26">
<path id="Vector" fill-rule="evenodd" clip-rule="evenodd" d="M17.9869 10.3438C16.3731 13.242 13.3124 15.0424 10.0011 15.0424C6.68756 15.0424 3.62697 13.242 2.01307 10.3438C1.88877 10.1188 1.88877 9.88092 2.01307 9.65607C3.62697 6.75795 6.68756 4.95779 10.0011 4.95779C13.3124 4.95779 16.373 6.75795 17.9869 9.65607C18.1134 9.88092 18.1134 10.1188 17.9869 10.3438ZM19.0179 9.08146C17.1961 5.80932 13.7411 3.77686 10.0011 3.77686C6.25889 3.77686 2.80393 5.80932 0.982129 9.08146C0.656348 9.66529 0.656348 10.3346 0.982129 10.918C2.80393 14.1902 6.25889 16.2231 10.0011 16.2231C13.7411 16.2231 17.1961 14.1902 19.0179 10.918C19.3437 10.3347 19.3437 9.66529 19.0179 9.08146ZM10.0011 12.4224C11.3363 12.4224 12.423 11.3358 12.423 9.99986C12.423 8.66396 11.3363 7.57732 10.0011 7.57732C8.66365 7.57732 7.57701 8.66396 7.57701 9.99986C7.57701 11.3358 8.66369 12.4224 10.0011 12.4224ZM10.0011 6.39639C8.01209 6.39639 6.39607 8.01307 6.39607 9.9999C6.39607 11.9872 8.01213 13.6032 10.0011 13.6032C11.9879 13.6032 13.6039 11.9871 13.6039 9.9999C13.6039 8.01307 11.9879 6.39639 10.0011 6.39639Z" fill="#5D616C"/>
</g>
</svg>
