<svg width="18" height="16" viewBox="0 0 18 16" fill="none" xmlns="http://www.w3.org/2000/svg">
<path fill-rule="evenodd" clip-rule="evenodd" d="M9.94583 2.79102C9.605 2.79102 9.28583 2.62435 9.09083 2.34518L8.34333 1.27268C7.915 0.657682 7.2125 0.291016 6.46333 0.291016C5.41916 0.291016 3.64416 0.291016 2.33333 0.291016C1.0675 0.291016 0.0416641 1.31685 0.0416641 2.58268V13.416C0.0416641 14.0235 0.283331 14.6068 0.712498 15.0368C1.1425 15.466 1.72583 15.7077 2.33333 15.7077H15.6667C16.2742 15.7077 16.8575 15.466 17.2875 15.0368C17.7167 14.6068 17.9583 14.0235 17.9583 13.416V5.08268C17.9583 4.47518 17.7167 3.89185 17.2875 3.46185C16.8575 3.03268 16.2742 2.79102 15.6667 2.79102H9.94583ZM9.94583 4.04102H15.6667C15.9433 4.04102 16.2075 4.15102 16.4033 4.34602C16.5983 4.54185 16.7083 4.80602 16.7083 5.08268V13.416C16.7083 13.6927 16.5983 13.9569 16.4033 14.1527C16.2075 14.3477 15.9433 14.4577 15.6667 14.4577H2.33333C2.05666 14.4577 1.7925 14.3477 1.59666 14.1527C1.40166 13.9569 1.29166 13.6927 1.29166 13.416V2.58268C1.29166 2.00768 1.75833 1.54102 2.33333 1.54102H6.46333C6.80416 1.54102 7.12333 1.70768 7.31833 1.98685L8.06583 3.05935C8.49416 3.67435 9.19583 4.04102 9.94583 4.04102Z" fill="#5D616C"/>
<path fill-rule="evenodd" clip-rule="evenodd" d="M6.10916 9.73676L8.1925 11.4034C8.45416 11.6118 8.83333 11.5784 9.05333 11.3268L11.97 7.99342C12.1975 7.73342 12.1708 7.33842 11.9117 7.11175C11.6517 6.88425 11.2567 6.91092 11.03 7.17009L8.50666 10.0534L6.89083 8.76009C6.62083 8.54509 6.2275 8.58842 6.01166 8.85759C5.79666 9.12759 5.84 9.52092 6.10916 9.73676Z" fill="#5D616C"/>
</svg>
