<svg width="16" height="18" viewBox="0 0 16 18" fill="none" xmlns="http://www.w3.org/2000/svg">
<path fill-rule="evenodd" clip-rule="evenodd" d="M6.75 8.16602H8C8.345 8.16602 8.625 8.44602 8.625 8.79102C8.625 9.13602 8.345 9.41602 8 9.41602H6.75C6.405 9.41602 6.125 9.69602 6.125 10.041C6.125 10.386 6.405 10.666 6.75 10.666H8C9.03583 10.666 9.875 9.82685 9.875 8.79102C9.875 7.75518 9.03583 6.91602 8 6.91602H6.75C6.405 6.91602 6.125 7.19602 6.125 7.54102C6.125 7.88602 6.405 8.16602 6.75 8.16602Z" fill="#5D616C"/>
<path fill-rule="evenodd" clip-rule="evenodd" d="M6.75 10.666H8C8.345 10.666 8.625 10.946 8.625 11.291C8.625 11.636 8.345 11.916 8 11.916H6.75C6.405 11.916 6.125 12.196 6.125 12.541C6.125 12.886 6.405 13.166 6.75 13.166H8C9.03583 13.166 9.875 12.3268 9.875 11.291C9.875 10.2552 9.03583 9.41602 8 9.41602H6.75C6.405 9.41602 6.125 9.69602 6.125 10.041C6.125 10.386 6.405 10.666 6.75 10.666Z" fill="#5D616C"/>
<path fill-rule="evenodd" clip-rule="evenodd" d="M8 2.125C3.63084 2.125 0.0833359 5.6725 0.0833359 10.0417C0.0833359 14.4108 3.63084 17.9583 8 17.9583C12.3692 17.9583 15.9167 14.4108 15.9167 10.0417C15.9167 5.6725 12.3692 2.125 8 2.125ZM8 3.375C11.6792 3.375 14.6667 6.3625 14.6667 10.0417C14.6667 13.7208 11.6792 16.7083 8 16.7083C4.32084 16.7083 1.33334 13.7208 1.33334 10.0417C1.33334 6.3625 4.32084 3.375 8 3.375Z" fill="#5D616C"/>
<path fill-rule="evenodd" clip-rule="evenodd" d="M6.33334 1.29102H9.66667C10.0117 1.29102 10.2917 1.01102 10.2917 0.666016C10.2917 0.321016 10.0117 0.0410156 9.66667 0.0410156H6.33334C5.98834 0.0410156 5.70834 0.321016 5.70834 0.666016C5.70834 1.01102 5.98834 1.29102 6.33334 1.29102Z" fill="#5D616C"/>
<path fill-rule="evenodd" clip-rule="evenodd" d="M12.7308 2.50026L14.4983 4.26776C14.7425 4.51193 15.1383 4.51193 15.3825 4.26776C15.6258 4.02443 15.6258 3.62776 15.3825 3.38443L13.6142 1.61609C13.3708 1.37276 12.9742 1.37276 12.7308 1.61609C12.4867 1.86026 12.4867 2.25609 12.7308 2.50026Z" fill="#5D616C"/>
<path fill-rule="evenodd" clip-rule="evenodd" d="M2.38584 1.61609L0.617505 3.38443C0.374172 3.62776 0.374172 4.02443 0.617505 4.26776C0.861672 4.51193 1.25751 4.51193 1.50167 4.26776L3.26917 2.50026C3.51334 2.25609 3.51334 1.86026 3.26917 1.61609C3.02584 1.37276 2.62917 1.37276 2.38584 1.61609Z" fill="#5D616C"/>
<path fill-rule="evenodd" clip-rule="evenodd" d="M13.1892 4.69398L14.4983 3.38565C14.7425 3.14148 14.7425 2.74565 14.4983 2.50148C14.2542 2.25732 13.8583 2.25732 13.6142 2.50148L12.3058 3.81065C12.0617 4.05398 12.0617 4.45065 12.3058 4.69398C12.5492 4.93815 12.9458 4.93815 13.1892 4.69398Z" fill="#5D616C"/>
<path fill-rule="evenodd" clip-rule="evenodd" d="M3.69417 3.81065L2.38583 2.50148C2.14167 2.25732 1.74583 2.25732 1.50167 2.50148C1.2575 2.74565 1.2575 3.14148 1.50167 3.38565L2.81083 4.69398C3.05417 4.93815 3.45083 4.93815 3.69417 4.69398C3.93833 4.45065 3.93833 4.05398 3.69417 3.81065Z" fill="#5D616C"/>
</svg>
