<svg width="102" height="44" viewBox="0 0 102 44" fill="none" xmlns="http://www.w3.org/2000/svg">
<rect x="0.5" y="0.5" width="101" height="43" rx="7.5" fill="white" stroke="#F0CCD0"/>
<path d="M21.9061 27H18.6099V16.8182H22.0105C23.0081 16.8182 23.8649 17.022 24.5808 17.4297C25.2967 17.834 25.8453 18.4157 26.2264 19.1747C26.6109 19.9304 26.8031 20.8369 26.8031 21.8942C26.8031 22.9548 26.6092 23.8662 26.2214 24.6286C25.837 25.3909 25.2802 25.9775 24.551 26.3885C23.8218 26.7962 22.9402 27 21.9061 27ZM20.1462 25.6577H21.8216C22.5972 25.6577 23.2418 25.5118 23.7555 25.2202C24.2693 24.9252 24.6537 24.4993 24.9089 23.9425C25.1642 23.3823 25.2918 22.6996 25.2918 21.8942C25.2918 21.0954 25.1642 20.4176 24.9089 19.8608C24.657 19.304 24.2809 18.8814 23.7804 18.593C23.2799 18.3047 22.6585 18.1605 21.916 18.1605H20.1462V25.6577ZM31.0964 27.169C30.6125 27.169 30.175 27.0795 29.7839 26.9006C29.3928 26.7183 29.0829 26.4548 28.8542 26.1101C28.6289 25.7654 28.5162 25.3428 28.5162 24.8423C28.5162 24.4115 28.599 24.0568 28.7648 23.7784C28.9305 23.5 29.1542 23.2796 29.4359 23.1172C29.7176 22.9548 30.0325 22.8321 30.3805 22.7493C30.7285 22.6664 31.0832 22.6035 31.4444 22.5604C31.9018 22.5073 32.273 22.4643 32.5581 22.4311C32.8431 22.3946 33.0503 22.3366 33.1795 22.2571C33.3088 22.1776 33.3734 22.0483 33.3734 21.8693V21.8345C33.3734 21.4003 33.2508 21.0639 33.0055 20.8253C32.7636 20.5866 32.4023 20.4673 31.9217 20.4673C31.4212 20.4673 31.0268 20.5784 30.7385 20.8004C30.4534 21.0192 30.2562 21.2628 30.1469 21.5312L28.7498 21.2131C28.9156 20.7491 29.1575 20.3745 29.4757 20.0895C29.7972 19.8011 30.1667 19.5923 30.5844 19.4631C31.002 19.3305 31.4411 19.2642 31.9018 19.2642C32.2068 19.2642 32.5299 19.3007 32.8713 19.3736C33.216 19.4432 33.5375 19.5724 33.8358 19.7614C34.1374 19.9503 34.3843 20.2204 34.5765 20.5717C34.7688 20.9197 34.8649 21.3722 34.8649 21.929V27H33.4132V25.956H33.3535C33.2574 26.1482 33.1132 26.3371 32.921 26.5227C32.7288 26.7083 32.4819 26.8625 32.1802 26.9851C31.8786 27.1077 31.5174 27.169 31.0964 27.169ZM31.4196 25.9759C31.8306 25.9759 32.1819 25.8946 32.4736 25.7322C32.7685 25.5698 32.9923 25.3577 33.1447 25.0959C33.3005 24.8307 33.3784 24.5473 33.3784 24.2457V23.2614C33.3254 23.3144 33.2226 23.3641 33.0702 23.4105C32.921 23.4536 32.7503 23.4917 32.5581 23.5249C32.3658 23.5547 32.1786 23.5829 31.9963 23.6094C31.814 23.6326 31.6615 23.6525 31.5389 23.669C31.2506 23.7055 30.9871 23.7668 30.7484 23.853C30.5131 23.9392 30.3242 24.0634 30.1817 24.2259C30.0425 24.3849 29.9729 24.5971 29.9729 24.8622C29.9729 25.2301 30.1087 25.5085 30.3805 25.6974C30.6523 25.883 30.9987 25.9759 31.4196 25.9759ZM40.6895 19.3636V20.5568H36.5183V19.3636H40.6895ZM37.6369 17.5341H39.1234V24.7578C39.1234 25.0462 39.1665 25.2633 39.2527 25.4091C39.3389 25.5516 39.4499 25.6494 39.5858 25.7024C39.725 25.7521 39.8758 25.777 40.0382 25.777C40.1575 25.777 40.2619 25.7687 40.3514 25.7521C40.4409 25.7356 40.5105 25.7223 40.5602 25.7124L40.8287 26.9403C40.7425 26.9735 40.6199 27.0066 40.4608 27.0398C40.3017 27.0762 40.1028 27.0961 39.8642 27.0994C39.4731 27.1061 39.1085 27.0365 38.7704 26.8906C38.4324 26.7448 38.1589 26.5194 37.9501 26.2145C37.7413 25.9096 37.6369 25.5268 37.6369 25.0661V17.5341ZM44.8361 27.169C44.3522 27.169 43.9147 27.0795 43.5236 26.9006C43.1325 26.7183 42.8226 26.4548 42.5939 26.1101C42.3686 25.7654 42.2559 25.3428 42.2559 24.8423C42.2559 24.4115 42.3387 24.0568 42.5044 23.7784C42.6702 23.5 42.8939 23.2796 43.1756 23.1172C43.4573 22.9548 43.7722 22.8321 44.1202 22.7493C44.4682 22.6664 44.8229 22.6035 45.1841 22.5604C45.6415 22.5073 46.0127 22.4643 46.2978 22.4311C46.5828 22.3946 46.79 22.3366 46.9192 22.2571C47.0485 22.1776 47.1131 22.0483 47.1131 21.8693V21.8345C47.1131 21.4003 46.9905 21.0639 46.7452 20.8253C46.5033 20.5866 46.142 20.4673 45.6614 20.4673C45.1609 20.4673 44.7665 20.5784 44.4782 20.8004C44.1931 21.0192 43.9959 21.2628 43.8865 21.5312L42.4895 21.2131C42.6553 20.7491 42.8972 20.3745 43.2154 20.0895C43.5369 19.8011 43.9064 19.5923 44.324 19.4631C44.7417 19.3305 45.1808 19.2642 45.6415 19.2642C45.9464 19.2642 46.2696 19.3007 46.611 19.3736C46.9557 19.4432 47.2772 19.5724 47.5755 19.7614C47.8771 19.9503 48.124 20.2204 48.3162 20.5717C48.5085 20.9197 48.6046 21.3722 48.6046 21.929V27H47.1529V25.956H47.0932C46.9971 26.1482 46.8529 26.3371 46.6607 26.5227C46.4685 26.7083 46.2215 26.8625 45.9199 26.9851C45.6183 27.1077 45.2571 27.169 44.8361 27.169ZM45.1593 25.9759C45.5703 25.9759 45.9216 25.8946 46.2133 25.7322C46.5082 25.5698 46.732 25.3577 46.8844 25.0959C47.0402 24.8307 47.1181 24.5473 47.1181 24.2457V23.2614C47.0651 23.3144 46.9623 23.3641 46.8098 23.4105C46.6607 23.4536 46.49 23.4917 46.2978 23.5249C46.1055 23.5547 45.9183 23.5829 45.736 23.6094C45.5537 23.6326 45.4012 23.6525 45.2786 23.669C44.9902 23.7055 44.7267 23.7668 44.4881 23.853C44.2528 23.9392 44.0639 24.0634 43.9214 24.2259C43.7821 24.3849 43.7125 24.5971 43.7125 24.8622C43.7125 25.2301 43.8484 25.5085 44.1202 25.6974C44.392 25.883 44.7383 25.9759 45.1593 25.9759ZM60.5222 19.4929C60.4692 19.0223 60.2504 18.6577 59.8659 18.3991C59.4815 18.1373 58.9976 18.0064 58.4142 18.0064C57.9966 18.0064 57.6354 18.0727 57.3304 18.2053C57.0255 18.3345 56.7885 18.5135 56.6195 18.7422C56.4538 18.9676 56.3709 19.2244 56.3709 19.5128C56.3709 19.7547 56.4273 19.9635 56.5399 20.1392C56.6559 20.3149 56.8068 20.4624 56.9924 20.5817C57.1813 20.6977 57.3835 20.7955 57.5989 20.875C57.8143 20.9512 58.0215 21.0142 58.2203 21.0639L59.2147 21.3224C59.5395 21.402 59.8726 21.5097 60.214 21.6456C60.5553 21.7815 60.8719 21.9605 61.1635 22.1825C61.4552 22.4046 61.6905 22.6797 61.8695 23.0078C62.0518 23.3359 62.1429 23.7287 62.1429 24.1861C62.1429 24.7628 61.9938 25.2749 61.6955 25.7223C61.4005 26.1697 60.9713 26.5227 60.4078 26.7812C59.8477 27.0398 59.1699 27.169 58.3745 27.169C57.6122 27.169 56.9526 27.0481 56.3958 26.8061C55.839 26.5642 55.4031 26.2211 55.0882 25.777C54.7734 25.3295 54.5994 24.7992 54.5662 24.1861H56.1074C56.1372 24.554 56.2566 24.8606 56.4654 25.1058C56.6775 25.3478 56.9476 25.5284 57.2757 25.6477C57.6072 25.7637 57.9701 25.8217 58.3645 25.8217C58.7987 25.8217 59.1848 25.7538 59.5229 25.6179C59.8643 25.4787 60.1327 25.2865 60.3283 25.0412C60.5238 24.7926 60.6216 24.5026 60.6216 24.1712C60.6216 23.8696 60.5354 23.6226 60.3631 23.4304C60.1941 23.2382 59.9637 23.0791 59.672 22.9531C59.3837 22.8272 59.0572 22.7161 58.6926 22.62L57.4895 22.2919C56.6742 22.0698 56.0279 21.7434 55.5506 21.3125C55.0766 20.8816 54.8397 20.3116 54.8397 19.6023C54.8397 19.0156 54.9988 18.5036 55.3169 18.0661C55.6351 17.6286 56.066 17.2888 56.6095 17.0469C57.1531 16.8016 57.7663 16.679 58.449 16.679C59.1384 16.679 59.7466 16.8 60.2736 17.0419C60.8039 17.2839 61.2215 17.617 61.5265 18.0412C61.8314 18.4621 61.9905 18.946 62.0037 19.4929H60.5222ZM67.4306 27.1541C66.6782 27.1541 66.0302 26.9934 65.4867 26.6719C64.9464 26.3471 64.5288 25.8913 64.2338 25.3047C63.9422 24.7147 63.7963 24.0237 63.7963 23.2315C63.7963 22.4493 63.9422 21.7599 64.2338 21.1634C64.5288 20.5668 64.9398 20.1011 65.4668 19.7663C65.9971 19.4316 66.6169 19.2642 67.3262 19.2642C67.757 19.2642 68.1746 19.3355 68.579 19.478C68.9834 19.6205 69.3463 19.8442 69.6678 20.1491C69.9893 20.4541 70.2428 20.8501 70.4284 21.3374C70.614 21.8213 70.7068 22.4096 70.7068 23.1023V23.6293H64.6365V22.5156H69.2502C69.2502 22.1245 69.1706 21.7782 69.0115 21.4766C68.8524 21.1716 68.6287 20.9313 68.3404 20.7557C68.0553 20.58 67.7206 20.4922 67.3361 20.4922C66.9185 20.4922 66.5539 20.5949 66.2424 20.8004C65.9341 21.0026 65.6955 21.2678 65.5264 21.5959C65.3607 21.9207 65.2779 22.2737 65.2779 22.6548V23.5249C65.2779 24.0353 65.3674 24.4695 65.5463 24.8274C65.7286 25.1854 65.9822 25.4588 66.307 25.6477C66.6318 25.8333 67.0113 25.9261 67.4455 25.9261C67.7272 25.9261 67.9841 25.8864 68.2161 25.8068C68.4481 25.724 68.6486 25.6013 68.8176 25.4389C68.9867 25.2765 69.1159 25.076 69.2054 24.8374L70.6124 25.0909C70.4997 25.5052 70.2975 25.8681 70.0058 26.1797C69.7175 26.4879 69.3546 26.7282 68.9171 26.9006C68.4829 27.0696 67.9874 27.1541 67.4306 27.1541ZM76.2008 19.3636V20.5568H72.0296V19.3636H76.2008ZM73.1482 17.5341H74.6347V24.7578C74.6347 25.0462 74.6778 25.2633 74.764 25.4091C74.8502 25.5516 74.9612 25.6494 75.0971 25.7024C75.2363 25.7521 75.3871 25.777 75.5495 25.777C75.6688 25.777 75.7732 25.7687 75.8627 25.7521C75.9522 25.7356 76.0218 25.7223 76.0715 25.7124L76.34 26.9403C76.2538 26.9735 76.1312 27.0066 75.9721 27.0398C75.813 27.0762 75.6141 27.0961 75.3755 27.0994C74.9844 27.1061 74.6198 27.0365 74.2818 26.8906C73.9437 26.7448 73.6703 26.5194 73.4614 26.2145C73.2526 25.9096 73.1482 25.5268 73.1482 25.0661V17.5341ZM83.7244 21.228L82.3771 21.4666C82.3208 21.2943 82.2313 21.1302 82.1086 20.9744C81.9893 20.8187 81.8269 20.6911 81.6214 20.5916C81.4159 20.4922 81.1591 20.4425 80.8508 20.4425C80.4299 20.4425 80.0786 20.5369 79.7968 20.7259C79.5151 20.9115 79.3743 21.1518 79.3743 21.4467C79.3743 21.7019 79.4687 21.9074 79.6576 22.0632C79.8466 22.219 80.1515 22.3466 80.5724 22.446L81.7855 22.7244C82.4881 22.8868 83.0118 23.1371 83.3565 23.4751C83.7012 23.8132 83.8736 24.2524 83.8736 24.7926C83.8736 25.25 83.741 25.6577 83.4758 26.0156C83.214 26.3703 82.8477 26.6487 82.3771 26.8509C81.9098 27.053 81.3679 27.1541 80.7514 27.1541C79.8963 27.1541 79.1986 26.9718 78.6584 26.6072C78.1181 26.2393 77.7867 25.7173 77.664 25.0412L79.1008 24.8224C79.1903 25.197 79.3743 25.4804 79.6527 25.6726C79.9311 25.8615 80.294 25.956 80.7415 25.956C81.2287 25.956 81.6181 25.8549 81.9098 25.6527C82.2014 25.4472 82.3473 25.197 82.3473 24.902C82.3473 24.6634 82.2578 24.4628 82.0788 24.3004C81.9031 24.138 81.633 24.0154 81.2684 23.9325L79.9758 23.6491C79.2632 23.4867 78.7362 23.2282 78.3949 22.8736C78.0568 22.5189 77.8878 22.0698 77.8878 21.5263C77.8878 21.0755 78.0137 20.6811 78.2656 20.343C78.5175 20.005 78.8655 19.7415 79.3096 19.5526C79.7538 19.3603 80.2625 19.2642 80.8359 19.2642C81.6612 19.2642 82.3108 19.4432 82.7848 19.8011C83.2587 20.1558 83.5719 20.6314 83.7244 21.228Z" fill="#595959"/>
</svg>
