<svg width="32" height="32" viewBox="0 0 32 32" fill="none" xmlns="http://www.w3.org/2000/svg">
<rect width="32" height="32" rx="4" transform="matrix(-1 0 0 1 32 0)" fill="white"/>
<path d="M25.3333 23H12.5C11.8583 23 11.3333 22.475 11.3333 21.8333C11.3333 21.1917 11.8583 20.6667 12.5 20.6667H25.3333C25.975 20.6667 26.5 21.1917 26.5 21.8333C26.5 22.475 25.975 23 25.3333 23ZM25.3333 17.1667H16C15.3583 17.1667 14.8333 16.6417 14.8333 16C14.8333 15.3583 15.3583 14.8333 16 14.8333H25.3333C25.975 14.8333 26.5 15.3583 26.5 16C26.5 16.6417 25.975 17.1667 25.3333 17.1667ZM26.5 10.1667C26.5 10.8083 25.975 11.3333 25.3333 11.3333H12.5C11.8583 11.3333 11.3333 10.8083 11.3333 10.1667C11.3333 9.525 11.8583 9 12.5 9H25.3333C25.975 9 26.5 9.525 26.5 10.1667ZM6.31667 19.36L9.67667 16L6.31667 12.64C6.20866 12.532 6.12298 12.4038 6.06452 12.2626C6.00606 12.1215 5.97598 11.9703 5.97598 11.8175C5.97598 11.6647 6.00606 11.5135 6.06452 11.3724C6.12298 11.2312 6.20866 11.103 6.31667 10.995C6.42468 10.887 6.55291 10.8013 6.69403 10.7429C6.83516 10.6844 6.98642 10.6543 7.13917 10.6543C7.29192 10.6543 7.44318 10.6844 7.5843 10.7429C7.72543 10.8013 7.85365 10.887 7.96167 10.995L12.15 15.1833C12.2582 15.2913 12.344 15.4195 12.4025 15.5606C12.4611 15.7017 12.4912 15.853 12.4912 16.0058C12.4912 16.1586 12.4611 16.3099 12.4025 16.4511C12.344 16.5922 12.2582 16.7204 12.15 16.8283L7.96167 21.0167C7.50667 21.4717 6.77167 21.4717 6.31667 21.0167C5.87333 20.5617 5.86167 19.815 6.31667 19.36Z" fill="#595959"/>
</svg>
