<svg width="28" height="28" viewBox="0 0 28 28" fill="none" xmlns="http://www.w3.org/2000/svg">
<g clip-path="url(#clip0_766_14670)">
<path d="M6.05488 15.2109C5.83788 15.121 5.58703 15.17 5.41903 15.3368L3.49873 17.2584L1.57838 15.338C1.41153 15.1711 1.15953 15.1221 0.942531 15.212C0.724383 15.3006 0.582031 15.5141 0.582031 15.7498V27.4165C0.582031 27.7385 0.843383 27.9999 1.16538 27.9999H5.83203C6.15403 27.9999 6.41538 27.7385 6.41538 27.4165V15.7498C6.41538 15.5142 6.27309 15.3007 6.05488 15.2109Z" fill="#5D616C"/>
<path d="M13.2451 13.0035L10.9117 10.6701C10.6842 10.4426 10.3144 10.4426 10.0869 10.6701L7.75353 13.0035C7.64388 13.1131 7.58203 13.2613 7.58203 13.4165V27.4165C7.58203 27.7385 7.84338 27.9998 8.16538 27.9998H12.832C13.154 27.9998 13.4154 27.7385 13.4154 27.4165V13.4165C13.4154 13.2613 13.3536 13.1132 13.2451 13.0035Z" fill="#5D616C"/>
<path d="M20.2451 10.6705L17.9117 8.33713C17.6842 8.10963 17.3144 8.10963 17.0869 8.33713L14.7535 10.6705C14.6439 10.7801 14.582 10.9283 14.582 11.0835V27.4168C14.582 27.7388 14.8434 28.0002 15.1654 28.0002H19.832C20.154 28.0002 20.4154 27.7388 20.4154 27.4168V11.0835C20.4154 10.9283 20.3536 10.7801 20.2451 10.6705Z" fill="#5D616C"/>
<path d="M27.2451 7.1705L26.0784 6.00385C25.9688 5.89535 25.8206 5.8335 25.6654 5.8335H24.4987C24.3436 5.8335 24.1954 5.89535 24.0857 6.00385L21.7524 8.3372C21.6439 8.44685 21.582 8.59505 21.582 8.7502V27.4168C21.582 27.7388 21.8434 28.0002 22.1654 28.0002H26.832C27.154 28.0002 27.4154 27.7388 27.4154 27.4168V7.5835C27.4154 7.42829 27.3536 7.28014 27.2451 7.1705Z" fill="#5D616C"/>
<path d="M26.8333 0H23.3333C23.0977 0 22.8842 0.142352 22.7943 0.3605C22.7045 0.578648 22.7547 0.8295 22.9203 0.996352L24.2585 2.33335L19.8333 6.7585L17.913 4.83815C17.6855 4.61065 17.3156 4.61065 17.0881 4.83815L12.8333 9.0918L10.9129 7.1703C10.6854 6.9428 10.3156 6.9428 10.0881 7.1703L3.5 13.7585L1.57964 11.8381C1.35214 11.6106 0.982292 11.6106 0.754792 11.8381C0.527292 12.0656 0.527292 12.4355 0.754792 12.663L3.08814 14.9964C3.20129 15.1095 3.35064 15.1667 3.5 15.1667C3.64935 15.1667 3.79864 15.1096 3.913 14.9964L10.5 8.40815L12.4203 10.3285C12.6478 10.556 13.0177 10.556 13.2452 10.3285L17.5 6.07485L19.4203 7.9952C19.6478 8.2227 20.0177 8.2227 20.2452 7.9952L25.0833 3.1582L26.4203 4.4952C26.5323 4.6072 26.6817 4.6667 26.8333 4.6667C26.908 4.6667 26.985 4.6527 27.0562 4.62235C27.2743 4.5325 27.4167 4.319 27.4167 4.08335V0.583352C27.4166 0.261352 27.1553 0 26.8333 0Z" fill="#5D616C"/>
</g>
<defs>
<clipPath id="clip0_766_14670">
<rect width="28" height="28" fill="white"/>
</clipPath>
</defs>
</svg>
