<svg width="102" height="44" viewBox="0 0 102 44" fill="none" xmlns="http://www.w3.org/2000/svg">
<rect x="0.5" y="0.5" width="101" height="43" rx="7.5" fill="white" stroke="#F0CCD0"/>
<path d="M16.5797 27V16.8182H20.2089C20.9978 16.8182 21.6523 16.9541 22.1727 17.2259C22.6964 17.4976 23.0875 17.8738 23.346 18.3544C23.6045 18.8317 23.7338 19.3835 23.7338 20.0099C23.7338 20.633 23.6029 21.1816 23.341 21.6555C23.0825 22.1262 22.6914 22.4924 22.1677 22.7543C21.6474 23.0161 20.9928 23.147 20.204 23.147H17.4547V21.8246H20.0647C20.5619 21.8246 20.9663 21.7533 21.2778 21.6108C21.5927 21.4683 21.823 21.2611 21.9689 20.9893C22.1147 20.7176 22.1876 20.3911 22.1876 20.0099C22.1876 19.6255 22.113 19.2924 21.9639 19.0107C21.8181 18.7289 21.5877 18.5135 21.2728 18.3643C20.9613 18.2119 20.552 18.1357 20.0449 18.1357H18.1159V27H16.5797ZM21.6059 22.4062L24.1216 27H22.3716L19.9057 22.4062H21.6059ZM28.9593 27.1541C28.2069 27.1541 27.5589 26.9934 27.0154 26.6719C26.4751 26.3471 26.0575 25.8913 25.7625 25.3047C25.4709 24.7147 25.325 24.0237 25.325 23.2315C25.325 22.4493 25.4709 21.7599 25.7625 21.1634C26.0575 20.5668 26.4685 20.1011 26.9955 19.7663C27.5258 19.4316 28.1456 19.2642 28.8549 19.2642C29.2857 19.2642 29.7034 19.3355 30.1077 19.478C30.5121 19.6205 30.875 19.8442 31.1965 20.1491C31.518 20.4541 31.7715 20.8501 31.9571 21.3374C32.1427 21.8213 32.2356 22.4096 32.2356 23.1023V23.6293H26.1652V22.5156H30.7789C30.7789 22.1245 30.6993 21.7782 30.5402 21.4766C30.3811 21.1716 30.1574 20.9313 29.8691 20.7557C29.584 20.58 29.2493 20.4922 28.8648 20.4922C28.4472 20.4922 28.0826 20.5949 27.7711 20.8004C27.4628 21.0026 27.2242 21.2678 27.0552 21.5959C26.8894 21.9207 26.8066 22.2737 26.8066 22.6548V23.5249C26.8066 24.0353 26.8961 24.4695 27.075 24.8274C27.2573 25.1854 27.5109 25.4588 27.8357 25.6477C28.1605 25.8333 28.54 25.9261 28.9742 25.9261C29.2559 25.9261 29.5128 25.8864 29.7448 25.8068C29.9768 25.724 30.1773 25.6013 30.3463 25.4389C30.5154 25.2765 30.6446 25.076 30.7341 24.8374L32.1411 25.0909C32.0284 25.5052 31.8262 25.8681 31.5346 26.1797C31.2462 26.4879 30.8833 26.7282 30.4458 26.9006C30.0116 27.0696 29.5161 27.1541 28.9593 27.1541ZM35.6514 16.8182V27H34.1649V16.8182H35.6514ZM41.2224 27.1541C40.47 27.1541 39.8221 26.9934 39.2785 26.6719C38.7383 26.3471 38.3206 25.8913 38.0257 25.3047C37.734 24.7147 37.5882 24.0237 37.5882 23.2315C37.5882 22.4493 37.734 21.7599 38.0257 21.1634C38.3206 20.5668 38.7316 20.1011 39.2586 19.7663C39.7889 19.4316 40.4087 19.2642 41.118 19.2642C41.5489 19.2642 41.9665 19.3355 42.3708 19.478C42.7752 19.6205 43.1381 19.8442 43.4596 20.1491C43.7811 20.4541 44.0347 20.8501 44.2203 21.3374C44.4059 21.8213 44.4987 22.4096 44.4987 23.1023V23.6293H38.4284V22.5156H43.042C43.042 22.1245 42.9625 21.7782 42.8034 21.4766C42.6443 21.1716 42.4206 20.9313 42.1322 20.7557C41.8472 20.58 41.5124 20.4922 41.1279 20.4922C40.7103 20.4922 40.3457 20.5949 40.0342 20.8004C39.7259 21.0026 39.4873 21.2678 39.3183 21.5959C39.1526 21.9207 39.0697 22.2737 39.0697 22.6548V23.5249C39.0697 24.0353 39.1592 24.4695 39.3382 24.8274C39.5205 25.1854 39.774 25.4588 40.0988 25.6477C40.4236 25.8333 40.8031 25.9261 41.2373 25.9261C41.519 25.9261 41.7759 25.8864 42.0079 25.8068C42.2399 25.724 42.4404 25.6013 42.6095 25.4389C42.7785 25.2765 42.9078 25.076 42.9973 24.8374L44.4042 25.0909C44.2915 25.5052 44.0893 25.8681 43.7977 26.1797C43.5093 26.4879 43.1464 26.7282 42.7089 26.9006C42.2747 27.0696 41.7792 27.1541 41.2224 27.1541ZM52.7419 19.3636L49.9727 27H48.3818L45.6077 19.3636H47.2036L49.1375 25.2401H49.2171L51.146 19.3636H52.7419ZM56.4225 27.169C55.9386 27.169 55.5011 27.0795 55.11 26.9006C54.7189 26.7183 54.409 26.4548 54.1803 26.1101C53.9549 25.7654 53.8422 25.3428 53.8422 24.8423C53.8422 24.4115 53.9251 24.0568 54.0908 23.7784C54.2565 23.5 54.4803 23.2796 54.762 23.1172C55.0437 22.9548 55.3586 22.8321 55.7066 22.7493C56.0546 22.6664 56.4092 22.6035 56.7705 22.5604C57.2279 22.5073 57.5991 22.4643 57.8841 22.4311C58.1692 22.3946 58.3763 22.3366 58.5056 22.2571C58.6348 22.1776 58.6995 22.0483 58.6995 21.8693V21.8345C58.6995 21.4003 58.5768 21.0639 58.3316 20.8253C58.0896 20.5866 57.7284 20.4673 57.2478 20.4673C56.7473 20.4673 56.3529 20.5784 56.0645 20.8004C55.7795 21.0192 55.5823 21.2628 55.4729 21.5312L54.0759 21.2131C54.2416 20.7491 54.4836 20.3745 54.8018 20.0895C55.1232 19.8011 55.4928 19.5923 55.9104 19.4631C56.328 19.3305 56.7672 19.2642 57.2279 19.2642C57.5328 19.2642 57.856 19.3007 58.1974 19.3736C58.542 19.4432 58.8635 19.5724 59.1618 19.7614C59.4634 19.9503 59.7104 20.2204 59.9026 20.5717C60.0948 20.9197 60.191 21.3722 60.191 21.929V27H58.7393V25.956H58.6796C58.5835 26.1482 58.4393 26.3371 58.2471 26.5227C58.0548 26.7083 57.8079 26.8625 57.5063 26.9851C57.2047 27.1077 56.8434 27.169 56.4225 27.169ZM56.7456 25.9759C57.1566 25.9759 57.508 25.8946 57.7996 25.7322C58.0946 25.5698 58.3183 25.3577 58.4708 25.0959C58.6266 24.8307 58.7045 24.5473 58.7045 24.2457V23.2614C58.6514 23.3144 58.5487 23.3641 58.3962 23.4105C58.2471 23.4536 58.0764 23.4917 57.8841 23.5249C57.6919 23.5547 57.5046 23.5829 57.3224 23.6094C57.1401 23.6326 56.9876 23.6525 56.865 23.669C56.5766 23.7055 56.3131 23.7668 56.0745 23.853C55.8392 23.9392 55.6502 24.0634 55.5077 24.2259C55.3685 24.3849 55.2989 24.5971 55.2989 24.8622C55.2989 25.2301 55.4348 25.5085 55.7066 25.6974C55.9784 25.883 56.3247 25.9759 56.7456 25.9759ZM63.9374 22.4659V27H62.4509V19.3636H63.8777V20.6065H63.9722C64.1479 20.2022 64.423 19.8774 64.7975 19.6321C65.1753 19.3868 65.6509 19.2642 66.2243 19.2642C66.7447 19.2642 67.2004 19.3736 67.5915 19.5923C67.9826 19.8078 68.2859 20.1293 68.5013 20.5568C68.7168 20.9844 68.8245 21.513 68.8245 22.1428V27H67.338V22.3217C67.338 21.7682 67.1938 21.3357 66.9054 21.0241C66.6171 20.7093 66.221 20.5518 65.7172 20.5518C65.3725 20.5518 65.0659 20.6264 64.7975 20.7756C64.5323 20.9247 64.3219 21.1435 64.1661 21.4318C64.0136 21.7169 63.9374 22.0616 63.9374 22.4659ZM74.3147 27.1541C73.5756 27.1541 72.9392 26.9867 72.4056 26.652C71.8753 26.3139 71.4676 25.8482 71.1826 25.255C70.8976 24.6617 70.755 23.9822 70.755 23.2166C70.755 22.4411 70.9009 21.7566 71.1925 21.1634C71.4842 20.5668 71.8952 20.1011 72.4255 19.7663C72.9558 19.4316 73.5806 19.2642 74.2998 19.2642C74.8798 19.2642 75.3968 19.3719 75.8509 19.5874C76.305 19.7995 76.6712 20.0978 76.9496 20.4822C77.2314 20.8667 77.3987 21.3158 77.4518 21.8295H76.005C75.9255 21.4716 75.7432 21.1634 75.4582 20.9048C75.1764 20.6463 74.7986 20.517 74.3246 20.517C73.9103 20.517 73.5474 20.6264 73.2359 20.8452C72.9276 21.0606 72.6873 21.3688 72.515 21.7699C72.3426 22.1676 72.2565 22.6383 72.2565 23.1818C72.2565 23.7386 72.341 24.2192 72.51 24.6236C72.679 25.0279 72.9177 25.3411 73.2259 25.5632C73.5375 25.7853 73.9037 25.8963 74.3246 25.8963C74.6064 25.8963 74.8616 25.8449 75.0903 25.7422C75.3223 25.6361 75.5162 25.4853 75.6719 25.2898C75.831 25.0942 75.9421 24.8589 76.005 24.5838H77.4518C77.3987 25.0777 77.238 25.5185 76.9695 25.9062C76.7011 26.294 76.3415 26.599 75.8907 26.821C75.4432 27.0431 74.9179 27.1541 74.3147 27.1541ZM82.6126 27.1541C81.8603 27.1541 81.2123 26.9934 80.6687 26.6719C80.1285 26.3471 79.7109 25.8913 79.4159 25.3047C79.1242 24.7147 78.9784 24.0237 78.9784 23.2315C78.9784 22.4493 79.1242 21.7599 79.4159 21.1634C79.7109 20.5668 80.1219 20.1011 80.6489 19.7663C81.1792 19.4316 81.799 19.2642 82.5082 19.2642C82.9391 19.2642 83.3567 19.3355 83.7611 19.478C84.1654 19.6205 84.5284 19.8442 84.8499 20.1491C85.1713 20.4541 85.4249 20.8501 85.6105 21.3374C85.7961 21.8213 85.8889 22.4096 85.8889 23.1023V23.6293H79.8186V22.5156H84.4322C84.4322 22.1245 84.3527 21.7782 84.1936 21.4766C84.0345 21.1716 83.8108 20.9313 83.5224 20.7557C83.2374 20.58 82.9026 20.4922 82.5182 20.4922C82.1006 20.4922 81.736 20.5949 81.4244 20.8004C81.1162 21.0026 80.8775 21.2678 80.7085 21.5959C80.5428 21.9207 80.4599 22.2737 80.4599 22.6548V23.5249C80.4599 24.0353 80.5494 24.4695 80.7284 24.8274C80.9107 25.1854 81.1642 25.4588 81.4891 25.6477C81.8139 25.8333 82.1934 25.9261 82.6275 25.9261C82.9093 25.9261 83.1661 25.8864 83.3981 25.8068C83.6302 25.724 83.8307 25.6013 83.9997 25.4389C84.1687 25.2765 84.298 25.076 84.3875 24.8374L85.7945 25.0909C85.6818 25.5052 85.4796 25.8681 85.1879 26.1797C84.8996 26.4879 84.5366 26.7282 84.0991 26.9006C83.665 27.0696 83.1695 27.1541 82.6126 27.1541Z" fill="#595959"/>
</svg>
