<svg width="18" height="18" viewBox="0 0 18 18" fill="none" xmlns="http://www.w3.org/2000/svg">
<path fill-rule="evenodd" clip-rule="evenodd" d="M15.2733 17.9568H9.48333C8.80667 17.9568 8.18167 17.5968 7.8425 17.0118C7.50333 16.4277 7.50083 15.706 7.83667 15.1193L10.7317 10.0527C11.0692 9.46182 11.6975 9.09766 12.3783 9.09766C13.0583 9.09766 13.6867 9.46182 14.025 10.0527L16.92 15.1193C17.255 15.706 17.2525 16.4277 16.9133 17.0118C16.5742 17.5968 15.9492 17.9568 15.2733 17.9568ZM15.2733 16.7068C15.5033 16.7068 15.7167 16.5843 15.8325 16.3852C15.9483 16.1852 15.9492 15.9393 15.8342 15.7393L12.9392 10.6727C12.8242 10.4718 12.61 10.3477 12.3783 10.3477C12.1458 10.3477 11.9317 10.4718 11.8167 10.6727L8.92167 15.7393C8.8075 15.9393 8.80833 16.1852 8.92333 16.3852C9.03917 16.5843 9.2525 16.7068 9.48333 16.7068H15.2733Z" fill="#5D616C"/>
<path fill-rule="evenodd" clip-rule="evenodd" d="M11.7533 12.4316C11.7533 12.0866 12.0333 11.8066 12.3783 11.8066C12.7233 11.8066 13.0033 12.0866 13.0033 12.4316V14.0983C13.0033 14.4425 12.7233 14.7233 12.3783 14.7233C12.0333 14.7233 11.7533 14.4425 11.7533 14.0983V12.4316Z" fill="#5D616C"/>
<path d="M12.3783 16.1816C12.7235 16.1816 13.0033 15.9018 13.0033 15.5566C13.0033 15.2115 12.7235 14.9316 12.3783 14.9316C12.0332 14.9316 11.7533 15.2115 11.7533 15.5566C11.7533 15.9018 12.0332 16.1816 12.3783 16.1816Z" fill="#5D616C"/>
<path fill-rule="evenodd" clip-rule="evenodd" d="M15.5925 8.16602C15.5925 8.51102 15.3125 8.79102 14.9675 8.79102C14.6225 8.79102 14.3425 8.51102 14.3425 8.16602V5.52268C14.3425 5.24685 14.2325 4.98185 14.0375 4.78685L10.8467 1.59602C10.6517 1.40102 10.3867 1.29102 10.1108 1.29102H3.12167C2.84584 1.29102 2.58083 1.40102 2.385 1.59602C2.19 1.79185 2.08 2.05602 2.08 2.33268V15.666C2.08 15.9427 2.19 16.2069 2.385 16.4027C2.58083 16.5977 2.84584 16.7077 3.12167 16.7077H6.12834C6.47334 16.7077 6.75334 16.9877 6.75334 17.3327C6.75334 17.6777 6.47334 17.9577 6.12834 17.9577H3.12167C2.51417 17.9577 1.93167 17.716 1.50167 17.2868C1.07167 16.8568 0.830002 16.2735 0.830002 15.666V2.33268C0.830002 1.72518 1.07167 1.14185 1.50167 0.711849C1.93167 0.282682 2.51417 0.0410156 3.12167 0.0410156H10.1108C10.7183 0.0410156 11.3008 0.282682 11.7308 0.711849L14.9217 3.90268C15.3508 4.33268 15.5925 4.91518 15.5925 5.52268V8.16602Z" fill="#5D616C"/>
<path fill-rule="evenodd" clip-rule="evenodd" d="M10.1758 1.08203C10.1758 0.737031 10.4558 0.457031 10.8008 0.457031C11.1458 0.457031 11.4258 0.737031 11.4258 1.08203V3.9987C11.4258 4.1137 11.5192 4.20703 11.6342 4.20703H14.5508C14.8958 4.20703 15.1758 4.48703 15.1758 4.83203C15.1758 5.17703 14.8958 5.45703 14.5508 5.45703H11.6342C10.8283 5.45703 10.1758 4.80453 10.1758 3.9987V1.08203Z" fill="#5D616C"/>
<path fill-rule="evenodd" clip-rule="evenodd" d="M4.37167 5.45703C4.02667 5.45703 3.74667 5.17703 3.74667 4.83203C3.74667 4.48703 4.02667 4.20703 4.37167 4.20703H6.87167C7.21667 4.20703 7.49667 4.48703 7.49667 4.83203C7.49667 5.17703 7.21667 5.45703 6.87167 5.45703H4.37167Z" fill="#5D616C"/>
<path fill-rule="evenodd" clip-rule="evenodd" d="M4.37167 10.457C4.02667 10.457 3.74667 10.177 3.74667 9.83203C3.74667 9.48703 4.02667 9.20703 4.37167 9.20703H6.87167C7.21667 9.20703 7.49667 9.48703 7.49667 9.83203C7.49667 10.177 7.21667 10.457 6.87167 10.457H4.37167Z" fill="#5D616C"/>
<path fill-rule="evenodd" clip-rule="evenodd" d="M4.37167 7.95703C4.02667 7.95703 3.74667 7.67703 3.74667 7.33203C3.74667 6.98703 4.02667 6.70703 4.37167 6.70703H9.37167C9.71667 6.70703 9.99667 6.98703 9.99667 7.33203C9.99667 7.67703 9.71667 7.95703 9.37167 7.95703H4.37167Z" fill="#5D616C"/>
</svg>
