<svg width="18" height="18" viewBox="0 0 18 18" fill="none" xmlns="http://www.w3.org/2000/svg">
<path fill-rule="evenodd" clip-rule="evenodd" d="M5.05167 9.1869C5.39667 9.1869 5.67667 8.9069 5.67667 8.5619V5.05273C5.67667 4.7069 5.39667 4.42773 5.05167 4.42773C5.05167 4.42773 3.76584 4.42773 2.85834 4.42773C2.02834 4.42773 1.35583 5.10023 1.35583 5.9294V7.6844C1.35583 8.5144 2.02834 9.1869 2.85834 9.1869H5.05167ZM4.42667 7.9369H2.85834C2.71834 7.9369 2.60584 7.8244 2.60584 7.6844V5.93023C2.60584 5.79023 2.71834 5.67773 2.85834 5.67773H4.42667V7.9369Z" fill="#5D616C"/>
<path fill-rule="evenodd" clip-rule="evenodd" d="M16.6442 7.6844V5.9294C16.6442 5.10023 15.9717 4.42773 15.1417 4.42773H12.9483C12.6033 4.42773 12.3233 4.7069 12.3233 5.05273V8.5619C12.3233 8.9069 12.6033 9.1869 12.9483 9.1869H15.1417C15.9717 9.1869 16.6442 8.5144 16.6442 7.6844ZM15.3942 7.6844C15.3942 7.8244 15.2817 7.9369 15.1417 7.9369H13.5733V5.67773H15.1417C15.2817 5.67773 15.3942 5.79023 15.3942 5.9294V7.6844Z" fill="#5D616C"/>
<path fill-rule="evenodd" clip-rule="evenodd" d="M13.3875 7.9375H9.8775C9.5325 7.9375 9.2525 8.2175 9.2525 8.5625C9.2525 8.9075 9.5325 9.1875 9.8775 9.1875H13.3875C13.7325 9.1875 14.0125 8.9075 14.0125 8.5625C14.0125 8.2175 13.7325 7.9375 13.3875 7.9375Z" fill="#5D616C"/>
<path fill-rule="evenodd" clip-rule="evenodd" d="M17.5217 15.337C17.5217 14.2828 16.8833 13.2795 15.7242 12.4895C14.2067 11.4545 11.7617 10.7637 9 10.7637C6.23833 10.7637 3.79333 11.4545 2.27583 12.4895C1.11667 13.2795 0.478333 14.2828 0.478333 15.337V16.542C0.478333 16.9178 0.627499 17.277 0.892499 17.5428C1.1575 17.8078 1.5175 17.957 1.8925 17.957H16.1075C16.4825 17.957 16.8425 17.8078 17.1075 17.5428C17.3725 17.277 17.5217 16.9178 17.5217 16.542V15.337ZM16.2717 15.337V16.542C16.2717 16.5862 16.2542 16.6278 16.2233 16.6587C16.1925 16.6895 16.1508 16.707 16.1075 16.707H1.8925C1.84917 16.707 1.8075 16.6895 1.77667 16.6587C1.74583 16.6278 1.72833 16.5862 1.72833 16.542V15.337C1.72833 14.647 2.22083 14.0395 2.98 13.522C4.33667 12.597 6.53167 12.0137 9 12.0137C11.4683 12.0137 13.6633 12.597 15.02 13.522C15.7792 14.0395 16.2717 14.647 16.2717 15.337Z" fill="#5D616C"/>
<path fill-rule="evenodd" clip-rule="evenodd" d="M9 2.39258C6.47583 2.39258 4.42667 4.44175 4.42667 6.96591C4.42667 9.49008 6.47583 11.5392 9 11.5392C11.5242 11.5392 13.5733 9.49008 13.5733 6.96591C13.5733 4.44175 11.5242 2.39258 9 2.39258ZM9 3.64258C10.8342 3.64258 12.3233 5.13175 12.3233 6.96591C12.3233 8.80008 10.8342 10.2892 9 10.2892C7.16583 10.2892 5.67667 8.80008 5.67667 6.96591C5.67667 5.13175 7.16583 3.64258 9 3.64258Z" fill="#5D616C"/>
<path fill-rule="evenodd" clip-rule="evenodd" d="M3.26417 5.67768L3.29667 5.67852L3.32334 5.67518C3.44334 5.66018 3.92167 5.56852 3.92167 5.05352C3.92167 4.05518 4.31834 3.09852 5.02334 2.39268C5.72917 1.68768 6.68584 1.29102 7.68417 1.29102H10.0967C11.0942 1.29102 12.0517 1.68768 12.7567 2.39268C13.4625 3.09852 13.8592 4.05518 13.8592 5.05352C13.8592 5.06602 13.8592 5.07852 13.86 5.09102C13.8692 5.29435 13.9558 5.42685 14.0617 5.51435C14.1733 5.61602 14.3217 5.67852 14.4842 5.67852C14.4842 5.67852 15.1092 5.64268 15.1092 5.05352C15.1092 3.72352 14.5808 2.44935 13.6408 1.50935C12.7008 0.569349 11.4258 0.0410156 10.0967 0.0410156C9.30417 0.0410156 8.47667 0.0410156 7.68417 0.0410156C6.35417 0.0410156 5.08 0.569349 4.14 1.50935C3.2 2.44935 2.67167 3.72352 2.67167 5.05352C2.67167 5.06602 2.6725 5.07852 2.67334 5.09102C2.6825 5.29435 2.76917 5.42685 2.875 5.51435C2.97834 5.60935 3.115 5.66935 3.26417 5.67768Z" fill="#5D616C"/>
</svg>
