<svg width="18" height="16" viewBox="0 0 18 16" fill="none" xmlns="http://www.w3.org/2000/svg">
<path fill-rule="evenodd" clip-rule="evenodd" d="M16.2917 6.75065C16.2917 6.75065 16.2917 4.59232 16.2917 3.00065C16.2917 2.39315 16.05 1.80982 15.6209 1.37982C15.1909 0.950651 14.6075 0.708984 14 0.708984C11.1142 0.708984 5.21919 0.708984 2.33335 0.708984C1.72585 0.708984 1.14252 0.950651 0.71252 1.37982C0.283354 1.80982 0.041687 2.39315 0.041687 3.00065V10.5007C0.041687 11.1082 0.283354 11.6915 0.71252 12.1215C1.14252 12.5507 1.72585 12.7923 2.33335 12.7923H9.00002C9.34502 12.7923 9.62502 12.5123 9.62502 12.1673C9.62502 11.8223 9.34502 11.5423 9.00002 11.5423C9.00002 11.5423 4.76502 11.5423 2.33335 11.5423C2.05669 11.5423 1.79252 11.4323 1.59669 11.2373C1.40169 11.0415 1.29169 10.7773 1.29169 10.5007C1.29169 8.46398 1.29169 5.03732 1.29169 3.00065C1.29169 2.72398 1.40169 2.45982 1.59669 2.26398C1.79252 2.06898 2.05669 1.95898 2.33335 1.95898H14C14.2767 1.95898 14.5409 2.06898 14.7367 2.26398C14.9317 2.45982 15.0417 2.72398 15.0417 3.00065V6.75065C15.0417 7.09565 15.3217 7.37565 15.6667 7.37565C16.0117 7.37565 16.2917 7.09565 16.2917 6.75065Z" fill="#5D616C"/>
<path fill-rule="evenodd" clip-rule="evenodd" d="M0.363345 3.5469C0.363345 3.5469 4.52585 5.8594 6.64918 7.03857C7.59251 7.56274 8.74085 7.56274 9.68418 7.03857C11.8075 5.8594 15.97 3.5469 15.97 3.5469C16.2717 3.3794 16.3808 2.99857 16.2133 2.6969C16.0458 2.39524 15.665 2.28607 15.3633 2.45357C15.3633 2.45357 11.2 4.7669 9.07751 5.94607C8.51085 6.26107 7.82251 6.26107 7.25584 5.94607L0.970012 2.45357C0.668345 2.28607 0.287512 2.39524 0.120012 2.6969C-0.0474885 2.99857 0.0616783 3.3794 0.363345 3.5469Z" fill="#5D616C"/>
<path fill-rule="evenodd" clip-rule="evenodd" d="M14.4167 8.20898C12.4617 8.20898 10.875 9.79565 10.875 11.7507C10.875 13.7057 12.4617 15.2923 14.4167 15.2923C16.3717 15.2923 17.9583 13.7057 17.9583 11.7507C17.9583 9.79565 16.3717 8.20898 14.4167 8.20898ZM14.4167 9.45898C15.6817 9.45898 16.7083 10.4857 16.7083 11.7507C16.7083 13.0157 15.6817 14.0423 14.4167 14.0423C13.1517 14.0423 12.125 13.0157 12.125 11.7507C12.125 10.4857 13.1517 9.45898 14.4167 9.45898Z" fill="#5D616C"/>
<path fill-rule="evenodd" clip-rule="evenodd" d="M12.9334 12.1927L13.7667 13.0261C13.8942 13.1544 14.0717 13.2211 14.2525 13.2077C14.4334 13.1952 14.6 13.1044 14.7084 12.9594L15.9584 11.2927C16.165 11.0169 16.1092 10.6244 15.8334 10.4177C15.5575 10.2111 15.165 10.2669 14.9584 10.5427L14.1409 11.6327L13.8167 11.3094C13.5734 11.0652 13.1767 11.0652 12.9334 11.3094C12.6892 11.5527 12.6892 11.9494 12.9334 12.1927Z" fill="#5D616C"/>
</svg>
