<svg width="102" height="44" viewBox="0 0 102 44" fill="none" xmlns="http://www.w3.org/2000/svg">
<rect x="0.5" y="0.5" width="101" height="43" rx="7.5" fill="white" stroke="#F0CCD0"/>
<path d="M30.4261 16.8182H32.1711L34.8309 21.4467H34.9403L37.6001 16.8182H39.3451L35.6512 23.0028V27H34.12V23.0028L30.4261 16.8182ZM44.5669 21.2628V22.5554H40.0527V21.2628H44.5669ZM55.404 20.1293H53.8529C53.7932 19.7978 53.6822 19.5062 53.5198 19.2543C53.3574 19.0024 53.1585 18.7886 52.9232 18.6129C52.6879 18.4373 52.4244 18.3047 52.1327 18.2152C51.8444 18.1257 51.5378 18.081 51.213 18.081C50.6263 18.081 50.101 18.2285 49.637 18.5234C49.1763 18.8184 48.8117 19.2509 48.5432 19.821C48.2781 20.3911 48.1455 21.0871 48.1455 21.9091C48.1455 22.7377 48.2781 23.437 48.5432 24.0071C48.8117 24.5772 49.1779 25.008 49.642 25.2997C50.106 25.5914 50.628 25.7372 51.208 25.7372C51.5295 25.7372 51.8344 25.6941 52.1228 25.608C52.4145 25.5185 52.6779 25.3875 52.9133 25.2152C53.1486 25.0429 53.3475 24.8324 53.5099 24.5838C53.6756 24.3319 53.7899 24.0436 53.8529 23.7188L55.404 23.7237C55.3212 24.2242 55.1604 24.6849 54.9218 25.1058C54.6865 25.5234 54.3832 25.8847 54.012 26.1896C53.6441 26.4912 53.2232 26.7249 52.7492 26.8906C52.2752 27.0563 51.7582 27.1392 51.1981 27.1392C50.3164 27.1392 49.5309 26.9304 48.8415 26.5128C48.1521 26.0919 47.6086 25.4903 47.2109 24.7081C46.8164 23.9259 46.6192 22.9929 46.6192 21.9091C46.6192 20.822 46.8181 19.889 47.2158 19.1101C47.6136 18.3279 48.1571 17.728 48.8465 17.3104C49.5359 16.8894 50.3198 16.679 51.1981 16.679C51.7383 16.679 52.2421 16.7569 52.7094 16.9126C53.1801 17.0651 53.6027 17.2905 53.9772 17.5888C54.3517 17.8838 54.6616 18.245 54.9069 18.6726C55.1521 19.0968 55.3179 19.5824 55.404 20.1293ZM59.6253 27.169C59.1414 27.169 58.7039 27.0795 58.3128 26.9006C57.9217 26.7183 57.6118 26.4548 57.3831 26.1101C57.1577 25.7654 57.045 25.3428 57.045 24.8423C57.045 24.4115 57.1279 24.0568 57.2936 23.7784C57.4593 23.5 57.683 23.2796 57.9648 23.1172C58.2465 22.9548 58.5613 22.8321 58.9094 22.7493C59.2574 22.6664 59.612 22.6035 59.9733 22.5604C60.4307 22.5073 60.8019 22.4643 61.0869 22.4311C61.3719 22.3946 61.5791 22.3366 61.7084 22.2571C61.8376 22.1776 61.9023 22.0483 61.9023 21.8693V21.8345C61.9023 21.4003 61.7796 21.0639 61.5344 20.8253C61.2924 20.5866 60.9311 20.4673 60.4505 20.4673C59.9501 20.4673 59.5557 20.5784 59.2673 20.8004C58.9823 21.0192 58.7851 21.2628 58.6757 21.5312L57.2787 21.2131C57.4444 20.7491 57.6863 20.3745 58.0045 20.0895C58.326 19.8011 58.6956 19.5923 59.1132 19.4631C59.5308 19.3305 59.97 19.2642 60.4307 19.2642C60.7356 19.2642 61.0587 19.3007 61.4001 19.3736C61.7448 19.4432 62.0663 19.5724 62.3646 19.7614C62.6662 19.9503 62.9131 20.2204 63.1054 20.5717C63.2976 20.9197 63.3937 21.3722 63.3937 21.929V27H61.942V25.956H61.8824C61.7862 26.1482 61.6421 26.3371 61.4498 26.5227C61.2576 26.7083 61.0107 26.8625 60.7091 26.9851C60.4075 27.1077 60.0462 27.169 59.6253 27.169ZM59.9484 25.9759C60.3594 25.9759 60.7107 25.8946 61.0024 25.7322C61.2974 25.5698 61.5211 25.3577 61.6736 25.0959C61.8293 24.8307 61.9072 24.5473 61.9072 24.2457V23.2614C61.8542 23.3144 61.7514 23.3641 61.599 23.4105C61.4498 23.4536 61.2791 23.4917 61.0869 23.5249C60.8947 23.5547 60.7074 23.5829 60.5251 23.6094C60.3428 23.6326 60.1904 23.6525 60.0677 23.669C59.7794 23.7055 59.5159 23.7668 59.2773 23.853C59.0419 23.9392 58.853 24.0634 58.7105 24.2259C58.5713 24.3849 58.5017 24.5971 58.5017 24.8622C58.5017 25.2301 58.6376 25.5085 58.9094 25.6974C59.1811 25.883 59.5275 25.9759 59.9484 25.9759ZM67.1402 16.8182V27H65.6537V16.8182H67.1402ZM70.9065 16.8182V27H69.42V16.8182H70.9065Z" fill="#595959"/>
</svg>
